<?xml version="1.0" standalone="no"?>
<!DOCTYPE svg PUBLIC "-//W3C//DTD SVG 20010904//EN"
 "http://www.w3.org/TR/2001/REC-SVG-20010904/DTD/svg10.dtd">
<svg version="1.0" xmlns="http://www.w3.org/2000/svg"
 width="800.000000pt" height="800.000000pt" viewBox="0 0 800.000000 800.000000"
 preserveAspectRatio="xMidYMid meet">
<metadata>
Created by potrace 1.11, written by Peter Selinger 2001-2013
</metadata>
<g transform="translate(0.000000,800.000000) scale(0.100000,-0.100000)"
fill="#000000" stroke="none">
<path d="M3880 7741 c-115 -67 -429 -249 -485 -281 -16 -9 -50 -28 -75 -42
-99 -56 -246 -141 -270 -156 -14 -9 -27 -17 -30 -17 -5 0 -46 -24 -260 -149
-58 -34 -112 -65 -120 -69 -8 -4 -24 -13 -35 -20 -36 -21 -384 -221 -428 -246
-23 -12 -71 -40 -107 -61 -113 -66 -454 -262 -490 -283 -19 -11 -82 -46 -139
-79 -57 -33 -129 -74 -160 -90 -31 -17 -63 -36 -71 -43 -8 -7 -20 -14 -26 -16
-6 -2 -60 -32 -120 -67 l-109 -63 0 -1164 c0 -763 3 -1167 10 -1174 6 -5 82
-51 170 -101 88 -51 306 -177 485 -280 179 -103 343 -198 365 -210 22 -12 92
-53 155 -90 63 -37 234 -136 380 -220 146 -84 279 -160 295 -170 17 -10 134
-77 260 -150 291 -167 319 -185 347 -235 22 -39 22 -45 23 -382 0 -189 -2
-343 -5 -343 -3 0 -16 9 -30 20 -14 11 -28 20 -31 20 -3 0 -66 35 -140 78 -74
43 -154 90 -179 104 -39 22 -185 106 -825 476 -410 237 -636 368 -685 395 -30
17 -80 45 -110 63 l-54 33 -126 -66 c-69 -36 -163 -86 -210 -110 -47 -25 -87
-47 -90 -50 -3 -3 -5 -129 -5 -280 l0 -276 37 -23 c21 -13 39 -24 42 -24 2 0
61 -34 131 -75 69 -41 131 -75 136 -75 5 0 9 -4 9 -10 0 -5 3 -9 8 -8 4 1 18
-5 32 -14 14 -8 219 -127 455 -263 237 -137 540 -312 675 -390 135 -78 265
-153 290 -167 25 -14 126 -72 225 -130 99 -57 200 -116 225 -130 25 -14 86
-49 135 -78 50 -29 108 -63 130 -75 22 -13 146 -84 275 -159 l235 -135 55 31
c79 45 104 59 204 117 49 28 91 51 93 51 3 0 17 9 33 20 15 11 30 16 34 13 3
-4 12 1 19 10 6 9 262 158 567 332 305 173 562 320 570 325 8 5 38 22 65 38
28 16 66 38 85 49 201 116 392 223 397 223 4 0 14 6 22 14 9 7 44 29 77 47 34
19 234 133 445 253 l384 220 0 275 1 276 -42 27 c-23 15 -64 39 -90 53 -27 15
-76 42 -109 61 -129 75 -103 76 -255 -11 -74 -43 -153 -87 -175 -99 -82 -46
-281 -160 -305 -175 -14 -9 -35 -21 -46 -27 -12 -6 -341 -194 -732 -418 -390
-223 -717 -408 -725 -412 -14 -5 -16 28 -15 306 0 324 4 362 42 445 44 97 89
129 495 356 52 29 300 171 371 213 25 14 70 40 100 56 30 17 74 41 96 55 38
22 884 506 984 563 25 14 57 32 72 41 15 9 96 55 180 103 l153 87 0 277 0 277
-180 103 -180 103 -40 -23 c-22 -13 -56 -33 -75 -45 -19 -11 -42 -24 -50 -28
-8 -4 -82 -46 -165 -93 -82 -48 -170 -98 -195 -112 -25 -14 -79 -45 -120 -68
-41 -24 -84 -48 -95 -54 -23 -13 -230 -132 -278 -160 -119 -69 -1037 -592
-1059 -603 -15 -8 -30 -18 -33 -24 -4 -5 -10 -9 -15 -9 -12 0 -12 696 1 751
13 57 48 93 146 148 39 22 87 49 105 59 18 11 157 90 308 177 151 87 295 169
320 183 25 14 104 59 175 100 72 42 141 81 155 89 14 7 306 174 650 371 l625
357 0 273 c0 151 -2 277 -5 281 -3 4 -106 65 -230 135 -123 71 -232 133 -241
139 -18 11 -2 20 -529 -283 -146 -84 -285 -164 -310 -178 -25 -14 -78 -45
-118 -69 -41 -24 -75 -43 -78 -43 -2 0 -32 -17 -66 -38 -35 -21 -88 -52 -118
-69 -30 -17 -143 -81 -250 -143 -107 -62 -210 -122 -229 -132 -48 -27 -476
-274 -596 -343 -201 -116 -215 -122 -285 -110 -32 5 -182 86 -318 172 -23 14
-18 18 175 130 109 63 223 128 253 145 30 17 60 34 65 38 6 4 26 17 45 28 52
29 263 150 280 161 8 5 85 50 170 99 85 49 223 129 305 177 83 48 220 127 305
177 85 49 162 94 170 98 8 5 49 29 90 53 41 24 108 62 148 86 l73 42 -2 239
-1 239 -132 77 c-72 42 -175 103 -230 136 -54 33 -105 57 -113 53 -8 -3 -214
-119 -457 -259 -243 -140 -464 -266 -491 -281 -28 -16 -62 -36 -77 -46 -14
-11 -28 -19 -31 -19 -2 0 -54 -29 -115 -64 -61 -36 -131 -76 -154 -89 -24 -13
-146 -84 -273 -157 -126 -72 -248 -142 -270 -155 -22 -12 -112 -64 -200 -115
-384 -222 -368 -214 -450 -214 -72 -1 -88 6 -225 94 -16 11 -101 59 -131 75
-27 14 -24 18 24 45 23 13 107 62 187 108 80 47 164 96 187 108 23 13 108 63
190 110 81 48 164 95 183 106 19 11 118 69 220 128 251 146 426 247 480 278
25 13 77 44 115 67 39 23 88 52 110 64 22 12 56 31 75 42 19 12 94 55 165 96
72 42 132 77 134 79 8 7 3 476 -5 484 -16 15 -452 270 -461 269 -4 0 -60 -31
-123 -68z m-1820 -2876 c28 -18 323 -189 546 -316 78 -45 519 -300 534 -310
19 -12 371 -213 430 -246 25 -14 51 -30 58 -35 9 -8 12 -96 12 -379 0 -203 -2
-369 -4 -369 -2 0 -91 50 -197 111 -107 61 -214 123 -239 137 -25 13 -49 28
-55 32 -5 4 -30 19 -55 32 -25 14 -85 49 -135 78 -49 29 -106 61 -125 72 -50
29 -663 383 -740 428 -77 45 -113 81 -136 135 -14 35 -16 83 -16 355 0 173 1
321 1 328 1 13 51 -9 121 -53z"/>
</g>
</svg>
