<?xml version="1.0" standalone="no"?>
<!DOCTYPE svg PUBLIC "-//W3C//DTD SVG 20010904//EN"
 "http://www.w3.org/TR/2001/REC-SVG-20010904/DTD/svg10.dtd">
<svg version="1.0" xmlns="http://www.w3.org/2000/svg"
 width="176.000000pt" height="176.000000pt" viewBox="0 0 176.000000 176.000000"
 preserveAspectRatio="xMidYMid meet">
<metadata>
Created by potrace 1.11, written by Peter Selinger 2001-2013
</metadata>
<g transform="translate(0.000000,176.000000) scale(0.100000,-0.100000)"
fill="#000000" stroke="none">
<path d="M1024 1382 c2 -4 -52 -8 -122 -7 -152 0 -218 -19 -322 -94 -36 -26
-72 -50 -81 -53 -19 -7 -81 -97 -74 -108 3 -4 -2 -10 -10 -14 -17 -6 -20 -26
-4 -26 5 0 8 3 6 8 -3 4 7 16 21 26 25 19 25 19 18 0 -43 -102 -56 -162 -57
-252 0 -51 2 -96 5 -100 3 -3 6 6 6 19 1 14 9 -1 21 -36 27 -82 53 -128 119
-209 45 -56 67 -74 120 -98 153 -69 254 -68 388 4 43 22 82 44 87 48 6 4 27
13 48 20 39 12 73 50 64 72 -4 9 -6 8 -6 -3 -1 -18 -38 -55 -47 -46 -3 3 10
22 30 42 20 19 36 41 36 48 0 7 6 22 14 33 21 29 50 132 52 184 1 25 5 53 9
63 7 17 9 17 30 -3 l23 -22 7 21 c10 32 -18 185 -36 196 -4 3 -6 12 -3 20 4 8
-1 18 -10 21 -9 4 -21 15 -27 26 -9 16 -8 19 3 12 7 -4 2 6 -12 23 -14 18 -29
32 -34 32 -5 1 -1 -9 10 -21 10 -13 -12 8 -51 46 -50 49 -91 79 -142 103 -74
34 -88 38 -79 25z m-157 -58 c-3 -3 -12 -4 -19 -1 -8 3 -5 6 6 6 11 1 17 -2
13 -5z m261 -19 c50 -26 72 -44 112 -90 21 -25 19 -24 -21 8 -25 20 -76 53
-113 72 -41 21 -59 35 -46 35 11 0 42 -11 68 -25z m60 -11 c22 -22 27 -30 12
-20 -14 9 -38 25 -55 36 -22 14 -25 20 -12 20 9 0 34 -16 55 -36z m-162 -29
c43 -18 104 -64 160 -121 68 -68 79 -91 79 -164 0 -56 2 -65 18 -64 42 4 16
-179 -38 -266 -35 -55 -132 -147 -180 -170 -71 -34 -208 -39 -310 -10 -44 12
-93 29 -110 37 -49 25 -109 95 -129 152 -13 38 -21 49 -28 39 -5 -8 -6 -2 -2
16 5 20 4 27 -4 22 -8 -5 -10 -1 -5 10 4 10 2 15 -3 11 -6 -3 -10 36 -9 101 0
102 2 111 36 182 60 125 146 191 289 223 87 20 192 21 236 2z"/>
<path d="M908 1253 c6 -2 18 -2 25 0 6 3 1 5 -13 5 -14 0 -19 -2 -12 -5z"/>
<path d="M911 1024 c-34 -25 -27 -60 19 -89 22 -14 40 -32 40 -40 0 -20 -28
-31 -43 -16 -15 15 -37 14 -37 -3 0 -8 14 -19 30 -25 40 -13 76 3 83 37 5 26
-1 33 -62 80 -34 26 -20 44 27 36 34 -6 36 -5 21 10 -21 23 -53 27 -78 10z"/>
<path d="M640 1023 c0 -4 12 -39 26 -78 14 -38 28 -76 30 -84 6 -19 27 10 44
64 l13 40 27 -60 c18 -39 30 -55 33 -45 29 73 57 154 57 161 0 5 -6 9 -13 9
-8 0 -22 -25 -33 -56 l-19 -56 -17 38 c-9 22 -20 48 -23 59 -5 16 -12 8 -33
-39 l-28 -59 -17 57 c-11 34 -24 56 -33 56 -7 0 -14 -3 -14 -7z"/>
<path d="M1035 943 l0 -88 54 -3 c40 -2 52 0 49 10 -3 7 -18 14 -34 14 -43 3
-43 2 -39 22 2 9 4 22 4 28 1 6 15 10 33 10 17 -1 33 5 35 12 3 8 -7 12 -34
12 -32 0 -39 3 -39 20 0 11 5 21 11 21 19 3 40 6 53 8 6 0 12 6 12 11 0 6 -24
10 -53 10 l-53 0 1 -87z"/>
<path d="M527 810 c3 -11 7 -20 9 -20 2 0 4 9 4 20 0 11 -4 20 -9 20 -5 0 -7
-9 -4 -20z"/>
<path d="M555 809 c-4 -13 -13 -27 -19 -31 -8 -5 -7 -8 2 -8 7 0 17 10 22 23
8 19 15 10 11 -15 0 -5 3 -8 9 -8 11 0 25 48 16 57 -3 4 -6 -5 -6 -18 l-1 -24
-13 24 -14 24 -7 -24z"/>
<path d="M691 801 c0 -19 0 -32 2 -30 1 2 9 13 17 23 8 11 10 17 3 13 -7 -4
-13 0 -16 10 -3 10 -5 3 -6 -16z"/>
<path d="M988 806 c-7 -33 3 -45 27 -35 19 7 18 8 -4 8 -20 1 -21 3 -11 16 7
8 9 15 4 16 -5 0 0 4 11 9 19 8 19 9 -1 9 -15 1 -23 -6 -26 -23z"/>
<path d="M1192 803 c-2 -34 12 -51 24 -32 4 7 3 9 -4 5 -7 -4 -12 6 -15 26
l-4 33 -1 -32z"/>
<path d="M623 813 c-7 -3 -13 -14 -12 -26 0 -22 0 -22 9 1 12 30 24 28 18 -3
-3 -13 -1 -22 3 -19 11 6 12 41 2 47 -5 2 -14 2 -20 0z"/>
<path d="M662 795 c0 -16 2 -22 5 -12 2 9 2 23 0 30 -3 6 -5 -1 -5 -18z"/>
<path d="M740 810 c-12 -7 -11 -10 4 -16 14 -5 15 -9 4 -15 -10 -7 -9 -9 4 -9
12 0 17 6 15 20 -4 26 -10 31 -27 20z"/>
<path d="M793 813 c-7 -3 -13 -14 -12 -26 0 -21 1 -20 11 3 l11 25 7 -25 8
-25 1 25 c1 19 3 22 10 10 6 -8 7 -18 4 -24 -3 -5 -1 -6 5 -2 6 3 13 2 17 -3
9 -16 35 -1 35 19 0 23 -12 31 -29 21 -10 -6 -9 -10 4 -15 9 -3 13 -11 10 -16
-4 -7 -14 -2 -26 11 -20 24 -35 29 -56 22z"/>
<path d="M912 811 c-5 -3 -9 -14 -9 -23 0 -18 11 -15 13 3 3 23 6 23 18 0 l14
-24 0 25 c0 23 -16 32 -36 19z"/>
<path d="M1045 800 c9 -30 13 -35 21 -27 3 3 -2 16 -11 29 l-17 23 7 -25z"/>
<path d="M1097 813 c-4 -3 -7 -15 -7 -25 0 -30 51 -21 62 12 4 11 8 9 16 -10
10 -23 11 -23 11 -4 1 26 -27 40 -36 18 -5 -13 -8 -13 -15 -2 -7 10 -8 9 -4
-4 3 -12 0 -18 -9 -18 -8 0 -12 8 -10 20 4 21 2 24 -8 13z"/>
<path d="M1216 811 c-3 -5 1 -14 9 -21 8 -7 12 -17 8 -24 -3 -6 0 -5 8 2 12
11 11 15 -4 23 -9 6 -15 14 -12 20 4 5 4 9 1 9 -3 0 -7 -4 -10 -9z"/>
<path d="M710 780 c0 -5 5 -10 11 -10 5 0 7 5 4 10 -3 6 -8 10 -11 10 -2 0 -4
-4 -4 -10z"/>
<path d="M390 1060 c0 -5 5 -10 10 -10 6 0 10 5 10 10 0 6 -4 10 -10 10 -5 0
-10 -4 -10 -10z"/>
<path d="M366 740 c3 -19 10 -42 15 -50 5 -9 6 -2 2 20 -3 19 -10 42 -15 50
-6 10 -7 3 -2 -20z"/>
<path d="M412 710 c0 -14 2 -19 5 -12 2 6 2 18 0 25 -3 6 -5 1 -5 -13z"/>
<path d="M390 667 c0 -14 40 -87 48 -87 4 0 16 -14 26 -31 18 -31 32 -46 73
-82 16 -14 20 -14 20 -2 0 8 -4 12 -8 9 -11 -7 -90 89 -84 104 3 8 0 10 -7 6
-8 -5 -9 -2 -5 10 4 10 1 19 -8 22 -7 3 -11 13 -8 22 4 14 3 15 -6 2 -11 -16
-13 -15 -29 15 -6 11 -12 16 -12 12z m60 -62 c0 -12 -19 -12 -23 0 -4 9 -1 12
9 8 7 -3 14 -7 14 -8z"/>
</g>
</svg>
