<?xml version="1.0" encoding="iso-8859-1"?>
<!-- Generator: Adobe Illustrator 19.0.0, SVG Export Plug-In . SVG Version: 6.00 Build 0)  -->
<svg version="1.1" id="Layer_1" xmlns="http://www.w3.org/2000/svg" xmlns:xlink="http://www.w3.org/1999/xlink" x="0px" y="0px"
	 viewBox="0 0 512 512" style="enable-background:new 0 0 512 512;" xml:space="preserve">
<path style="fill:#324A5E;" d="M414.536,356.917l-32.801-11.234l10.393,39.525l-35.594,41.49l16.924,18.684l-34.507,59.43h66.61
	h62.369v-64.979C467.93,376.032,416.729,357.671,414.536,356.917z"/>
<g>
	<polygon style="fill:#536D7F;" points="392.128,385.208 381.735,345.682 348.845,334.418 314.447,504.813 338.95,504.813 
		373.457,445.383 356.533,426.699 	"/>
	<polygon style="fill:#536D7F;" points="204.151,344.887 193.548,385.208 229.145,426.699 212.221,445.383 246.726,504.813 
		270.44,504.813 235.936,334.256 	"/>
</g>
<path style="fill:#694B4B;" d="M421.994,140.048c-0.084-38.27-12.48-71.033-35.849-94.749
	c-23.354-23.702-55.572-36.257-93.183-36.314l-0.391-0.006c-0.111,0-0.22,0.002-0.33,0.006c-37.639,0.044-69.879,12.6-93.245,36.314
	c-23.369,23.716-35.765,56.481-35.849,94.749l-0.001,0.378l3.376,36.882v0.001l3.38,36.931l9.413,102.874h75.343v-27.038
	c-27.411-10.239-46.708-34.715-46.708-66.28l-9.514-1.71c-14.462-2.598-24.958-15.142-24.958-29.827s10.495-27.231,24.958-29.829
	l9.514-1.71v-10.394l8.617,0.027c20.92-0.001,74.556-8.606,110.676-48.373l8.128-8.949l5.165,10.931
	c4.139,8.759,12.036,25.113,31.289,32.739l5.107,2.022v21.994l9.515,1.711c14.46,2.6,24.955,15.144,24.955,29.829
	c0,14.684-10.495,27.229-24.956,29.826l-9.513,1.71c0,31.619-19.361,56.125-46.844,66.335v26.984h75.736L416.41,201.45l1.087-11.871
	l0.858-9.359l1.282-14.026l2.358-25.77L421.994,140.048z"/>
<g style="opacity:0.15;">
	<path d="M173.479,192.259c0-12.031,7.048-22.622,17.547-27.487l-2.228-24.346l0.001-0.378c0.084-38.27,12.48-71.033,35.849-94.749
		c20.735-21.046,48.464-33.294,80.749-35.817c-4.076-0.318-8.219-0.49-12.435-0.497l-0.391-0.006c-0.111,0-0.22,0.002-0.33,0.006
		c-37.639,0.044-69.879,12.6-93.245,36.314c-23.369,23.716-35.765,56.481-35.849,94.749l-0.001,0.378l3.376,36.882v0.001
		l3.38,36.931l9.413,102.874h25.652l-8.741-95.515C182.919,218.178,173.479,206.184,173.479,192.259z"/>
</g>
<polygon style="fill:#C3C8D1;" points="118.893,504.813 77.055,504.813 71.665,422.564 124.283,422.564 "/>
<rect x="44.069" y="373.652" style="fill:#EF4C35;" width="107.811" height="48.915"/>
<path style="fill:#324A5E;" d="M69.185,373.652h57.579c15.088-9.554,25.116-26.383,25.116-45.565
	c0-29.77-24.136-53.904-53.906-53.904c-29.77,0-53.906,24.134-53.906,53.904C44.069,347.271,54.095,364.098,69.185,373.652z"/>
<g style="opacity:0.15;">
	<polygon points="71.665,422.564 77.055,504.813 102.251,504.813 96.861,422.564 	"/>
</g>
<g style="opacity:0.15;">
	<rect x="44.069" y="373.652" width="25.332" height="48.915"/>
</g>
<g style="opacity:0.15;">
	<path d="M69.33,328.089c0-25.419,17.6-46.715,41.275-52.401c-4.054-0.973-8.279-1.504-12.631-1.504
		c-29.77,0-53.906,24.134-53.906,53.904c0,19.182,10.027,36.009,25.116,45.565h25.262C79.356,364.098,69.33,347.271,69.33,328.089z"
		/>
</g>
<path style="fill:#324A5E;" d="M212.22,445.383l16.924-18.684l-35.595-41.49l10.602-40.321l-35.946,12.024l-0.19,0.066
	c-0.434,0.157-1.721,0.642-3.617,1.512c-5.813,2.562-17.256,8.167-23.889,15.163h11.371v48.912h-27.597l-5.389,82.249h127.833
	L212.22,445.383z"/>
<path style="fill:#FBCB99;" d="M386.448,162.43l-9.515-1.711v-21.994l-5.107-2.022c-19.253-7.626-27.15-23.98-31.289-32.739
	l-5.165-10.931l-8.128,8.949c-36.12,39.767-89.755,48.372-110.676,48.373l-8.617-0.027v10.394l-9.514,1.71
	c-14.462,2.598-24.958,15.143-24.958,29.829c0,14.685,10.495,27.23,24.958,29.827l9.514,1.71l0,0
	c0,42.029,34.195,71.526,76.225,71.526h16.537c42.028,0,76.221-29.498,76.221-71.527l0,0l9.513-1.71
	c14.461-2.598,24.957-15.142,24.957-29.826C411.405,177.575,400.908,165.03,386.448,162.43z"/>
<g style="opacity:0.15;">
	<path d="M232.989,223.796v-63.075v-10.394l8.617,0.027c19.336-0.001,66.61-7.374,102.18-39.885
		c-1.304-2.408-2.363-4.632-3.249-6.505l-5.165-10.931l-8.128,8.949c-34.972,38.502-86.362,47.793-108.581,48.346h-4.75v0.019
		l-5.961-0.019v10.394l-9.514,1.71c-14.462,2.598-24.958,15.143-24.958,29.829c0,14.685,10.495,27.23,24.958,29.827l9.514,1.71
		c0,42.029,34.195,71.526,76.225,71.526h16.537c1.427,0,2.842-0.041,4.25-0.109C264.903,293.298,232.989,264.398,232.989,223.796z"
		/>
</g>
<path style="fill:#F9C698;" d="M330.09,290.149c-9.046,3.36-18.97,5.174-29.377,5.174h-16.537c-10.46,0-20.434-1.829-29.517-5.222
	v37.893l-18.724,6.264l7.601,37.578l3.506,1.768c10.421,5.253,27.033,11.514,46.991,11.515h0.004
	c14.797,0,29.387-3.419,43.359-10.16l3.616-1.745l7.832-38.793l-18.754-6.424v-37.846H330.09z"/>
<path style="fill:#EDB98A;" d="M304.726,230.667h-13.771c-4.466,0-8.084-3.618-8.084-8.084v-26.272c0-4.466,3.618-8.084,8.084-8.084
	s8.084,3.618,8.084,8.084v18.187h5.687c4.466,0,8.084,3.618,8.084,8.084S309.191,230.667,304.726,230.667z"/>
<path style="fill:#6598CB;" d="M341.555,370.527l-0.542,2.684l-3.616,1.745c-13.973,6.741-28.561,10.16-43.359,10.16h-0.004
	c-19.958-0.001-36.57-6.263-46.991-11.515l-3.505-1.767l26.903,132.977h44.006L341.555,370.527L341.555,370.527z"/>
<path d="M294.089,392.375c-23.35,0-42.554-7.9-54.412-14.413c-3.914-2.149-5.343-7.065-3.195-10.978
	c2.15-3.914,7.065-5.343,10.978-3.195c16.748,9.199,50.599,21.642,89.145,1.641c3.96-2.052,8.842-0.512,10.899,3.452
	c2.056,3.963,0.511,8.842-3.452,10.899C326.23,389.029,309.281,392.375,294.089,392.375z"/>
<path d="M314.455,512c-0.53,0-1.068-0.053-1.608-0.162c-4.376-0.883-7.208-5.147-6.324-9.524l34.398-170.396
	c0.883-4.377,5.147-7.21,9.524-6.324c4.376,0.883,7.208,5.147,6.324,9.524l-34.398,170.396C321.596,509.35,318.224,512,314.455,512z
	"/>
<path d="M304.726,229.768h-13.771c-4.466,0-8.084-3.618-8.084-8.084v-26.272c0-4.466,3.618-8.084,8.084-8.084
	s8.084,3.618,8.084,8.084V213.6h5.687c4.466,0,8.084,3.618,8.084,8.084C312.81,226.15,309.191,229.768,304.726,229.768z"/>
<path d="M446.775,367.23c-14.477-13.672-29.065-18.675-29.635-18.866l-31.261-10.707c-0.993-0.605-2.114-0.993-3.29-1.126
	L346.878,324.3h58.948c4.179,0,7.669-3.185,8.051-7.347l16.168-176.684c0.023-0.246,0.033-0.49,0.033-0.737
	c0-42.382-13.962-78.09-40.377-103.264C365.161,12.88,330.713,0,292.701,0c-0.044,0-0.086,0.005-0.129,0.006
	C292.528,0.005,292.485,0,292.442,0c-38.013,0-72.461,12.88-97.001,36.267c-26.415,25.173-40.378,60.882-40.378,103.263
	c0,0.247,0.012,0.492,0.033,0.737l16.168,176.684c0.382,4.162,3.872,7.347,8.051,7.347h58.217l-71.929,24.059
	c-0.34,0.115-5.049,1.748-11.663,5.552c3.912-8.195,6.022-17.284,6.022-26.721c0-34.181-27.809-61.989-61.99-61.989
	s-61.99,27.808-61.99,61.989c0,13.809,4.517,26.873,12.593,37.479h-4.509c-4.466,0-8.084,3.618-8.084,8.084v48.912
	c0,4.466,3.618,8.084,8.084,8.084h20.025l4.895,74.693c0.279,4.25,3.807,7.556,8.067,7.556h41.837h75.09
	c4.466,0,8.084-3.618,8.084-8.084s-3.618-8.084-8.084-8.084h-8.734V435.98c0-4.466-3.618-8.084-8.084-8.084
	s-8.084,3.618-8.084,8.084v59.848h-41.555l4.33-66.08h20.025c4.466,0,8.084-3.618,8.084-8.084v-48.912
	c0-1.136-0.236-2.217-0.66-3.198c6.572-4.137,11.433-5.864,11.467-5.877l21.757-7.278l-6.797,25.852
	c-0.675,2.569-0.045,5.304,1.684,7.32l30.955,36.081l-12.14,13.403c-2.362,2.607-2.766,6.445-1,9.487l27.456,47.286H219.43
	c-4.466,0-8.084,3.618-8.084,8.084s3.618,8.084,8.084,8.084h27.289c0.005,0,0.011,0.001,0.016,0.001s0.011-0.001,0.016-0.001h23.659
	c0.008,0,0.016,0.001,0.024,0.001c0.006,0,0.014-0.001,0.022-0.001h68.474c0.005,0,0.011,0.001,0.016,0.001s0.011-0.001,0.016-0.001
	h128.97c4.466,0,8.084-3.618,8.084-8.084v-64.979C476.014,402.49,460.114,379.826,446.775,367.23z M52.153,327.19
	c0-25.265,20.554-45.82,45.821-45.82s45.821,20.554,45.821,45.82c0,15.031-7.24,28.879-19.476,37.479H71.63
	C59.394,356.07,52.153,342.221,52.153,327.19z M111.321,495.829H84.627l-4.33-66.08h35.354L111.321,495.829z M143.795,413.581
	h-19.513H71.665H52.153v-32.743h17.032h57.579h17.032v32.743H143.795z M383.231,382.265l-32.835,38.272
	c-2.652,3.091-2.59,7.672,0.144,10.692l12.958,14.306l-29.203,50.296h-57.244l-31.777-157.072l11.948-3.997
	c3.297-1.102,5.52-4.19,5.52-7.666v-27.356c6.847,1.801,14.028,2.769,21.433,2.769h16.537c7.353,0,14.488-0.952,21.293-2.729v27.317
	c0,3.455,2.196,6.529,5.464,7.649l47.548,16.285L383.231,382.265z M181.563,191.36c0-10.919,7.915-20.006,18.303-21.873v43.742
	C189.478,211.364,181.563,202.278,181.563,191.36z M216.035,218.2v-60.655c8.892,0.037,23.601-0.628,40.62-4.47
	c30.636-6.914,56.434-21.412,75.482-42.27c5.037,10.672,15.407,24.078,36.713,32.516v74.88c0,37.571-30.566,68.139-68.137,68.139
	h-16.537C246.603,286.338,216.035,255.771,216.035,218.2z M385.018,169.488c10.388,1.867,18.302,10.954,18.302,21.872
	c0,10.917-7.914,20.003-18.302,21.869V169.488z M398.448,308.13h-60.274v-14.433c24.48-12.197,42.218-35.945,46.049-64.068
	c8.508-0.693,16.237-4.165,22.279-9.512L398.448,308.13z M292.442,16.168c0.044,0,0.086-0.005,0.129-0.006
	c0.043,0.001,0.086,0.006,0.129,0.006c72.38,0,121.049,49.412,121.209,122.997l-2.611,28.528
	c-6.274-7.995-15.637-13.455-26.281-14.544v-15.508c0-3.5-2.252-6.602-5.579-7.686c-33.558-10.937-35.814-35.637-35.89-36.61
	c-0.196-3.428-2.536-6.357-5.835-7.307c-3.297-0.947-6.84,0.29-8.827,3.088c-17.34,24.419-42.672,40.588-75.291,48.061
	c-24.79,5.679-44.69,3.92-44.877,3.905c-2.268-0.211-4.521,0.532-6.208,2.065c-1.685,1.532-2.646,3.705-2.646,5.982v4.009
	c-10.514,1.075-19.779,6.415-26.051,14.25l-2.584-28.233C171.393,65.58,220.061,16.168,292.442,16.168z M178.663,220.359
	c6.001,5.208,13.622,8.588,22.001,9.27c3.823,28.071,21.503,51.779,45.913,63.997v14.504h-59.881L178.663,220.359z M222.177,445.534
	l12.958-14.306c2.735-3.019,2.796-7.6,0.144-10.692l-32.835-38.272l8.412-31.994l18.968-6.344l30.732,151.904h-9.177
	L222.177,445.534z M459.845,495.829h-46.201v-59.848c0-4.466-3.618-8.084-8.084-8.084s-8.084,3.618-8.084,8.084v59.848h-44.483
	l27.456-47.286c1.767-3.042,1.362-6.879-1-9.487l-12.14-13.403l30.955-36.081c1.729-2.016,2.358-4.751,1.684-7.32l-6.556-24.933
	l18.526,6.346c1.956,0.674,47.929,17.173,47.929,75.268v56.896H459.845z"/>
<g style="opacity:0.15;">
	<path d="M238.623,333.358l-2.687,0.899l7.601,37.578l24.271,131.233c5.55,2.797,19.393,2.742,28.025,5.013l-37.042-174.722H238.623
		z"/>
</g>
<g>
</g>
<g>
</g>
<g>
</g>
<g>
</g>
<g>
</g>
<g>
</g>
<g>
</g>
<g>
</g>
<g>
</g>
<g>
</g>
<g>
</g>
<g>
</g>
<g>
</g>
<g>
</g>
<g>
</g>
</svg>
