<?xml version="1.0" encoding="iso-8859-1"?>
<!-- Generator: Adobe Illustrator 19.0.0, SVG Export Plug-In . SVG Version: 6.00 Build 0)  -->
<svg version="1.1" id="Layer_1" xmlns="http://www.w3.org/2000/svg" xmlns:xlink="http://www.w3.org/1999/xlink" x="0px" y="0px"
	 viewBox="0 0 512.001 512.001" style="enable-background:new 0 0 512.001 512.001;" xml:space="preserve">
<circle style="fill:#F7CB4F;" cx="68.659" cy="68.419" r="60.904"/>
<path style="fill:#F4B008;" d="M68.661,7.516c-3.415,0-6.76,0.295-10.022,0.835c28.866,4.781,50.882,29.848,50.882,60.069
	s-22.016,55.288-50.882,60.069c3.262,0.54,6.606,0.835,10.022,0.835c33.636,0,60.904-27.267,60.904-60.904
	S102.298,7.516,68.661,7.516z"/>
<circle style="fill:#F7CB4F;" cx="443.337" cy="68.419" r="60.904"/>
<path style="fill:#F4B008;" d="M443.338,7.516c-3.415,0-6.76,0.295-10.022,0.835c28.866,4.781,50.882,29.847,50.882,60.069
	c0,30.221-22.016,55.288-50.882,60.069c3.262,0.54,6.606,0.835,10.022,0.835c33.636,0,60.904-27.267,60.904-60.904
	S476.974,7.516,443.338,7.516z"/>
<circle style="fill:#F7CB4F;" cx="68.659" cy="443.578" r="60.904"/>
<path style="fill:#F4B008;" d="M68.661,382.676c-3.415,0-6.76,0.295-10.022,0.835c28.866,4.781,50.882,29.848,50.882,60.069
	c0,30.221-22.016,55.288-50.882,60.069c3.262,0.54,6.606,0.835,10.022,0.835c33.636,0,60.904-27.268,60.904-60.904
	S102.298,382.676,68.661,382.676z"/>
<circle style="fill:#F7CB4F;" cx="443.337" cy="443.578" r="60.904"/>
<path style="fill:#F4B008;" d="M443.338,382.676c-3.415,0-6.76,0.295-10.022,0.835c28.866,4.781,50.882,29.848,50.882,60.069
	c0,30.221-22.016,55.288-50.882,60.069c3.262,0.54,6.606,0.835,10.022,0.835c33.636,0,60.904-27.268,60.904-60.904
	S476.974,382.676,443.338,382.676z"/>
<circle style="fill:#EFE7E4;" cx="256.309" cy="270.6" r="134.764"/>
<path style="fill:#D8D1D0;" d="M256.308,135.836c-3.371,0-6.713,0.127-10.022,0.371c69.745,5.128,124.738,63.334,124.738,134.389
	s-54.993,129.261-124.738,134.389c3.309,0.244,6.651,0.371,10.022,0.371c74.426,0,134.76-60.335,134.76-134.76
	S330.734,135.836,256.308,135.836z"/>
<path style="fill:#68B9D8;" d="M256.308,405.357c33.532,0,64.201-12.252,87.783-32.517c-11.425-36.661-47.872-63.772-87.783-64.318
	c-39.91,0.546-76.359,27.657-87.783,64.318C192.108,393.106,222.775,405.357,256.308,405.357z"/>
<path style="fill:#3695B2;" d="M324.047,372.84c1.481,4.348,2.578,8.427,3.334,12.264c5.888-3.663,11.474-7.765,16.709-12.264
	c-11.425-36.661-47.872-63.772-87.783-64.318c-3.37,0.046-6.714,0.297-10.022,0.712C282.149,313.73,313.588,339.275,324.047,372.84z
	"/>
<path style="fill:#FFC89F;" d="M256.308,308.596L256.308,308.596c24.043,0,43.714-19.672,43.714-43.715v-37.618
	c0-24.043-19.672-43.715-43.714-43.715l0,0c-24.043,0-43.714,19.672-43.714,43.715v37.618
	C212.593,288.924,232.264,308.596,256.308,308.596z"/>
<path style="fill:#F7B081;" d="M256.308,183.549L256.308,183.549c-3.448,0-6.8,0.417-10.022,1.181
	c19.253,4.563,33.693,21.939,33.693,42.535v37.618c0,20.596-14.441,37.972-33.693,42.535c3.222,0.764,6.574,1.181,10.022,1.181
	c24.043,0,43.714-19.672,43.714-43.715v-37.618C300.023,203.22,280.351,183.549,256.308,183.549z"/>
<path style="fill:#D3333C;" d="M266.808,334.413h-10.5h-10.5l-11.743-22.814c7.191-1.908,14.654-2.974,22.243-3.078
	c7.589,0.104,15.052,1.17,22.243,3.078L266.808,334.413z"/>
<path style="fill:#7F1B20;" d="M264.618,309.022l-12.843,25.39h4.533h10.5l11.743-22.814
	C274.003,310.393,269.346,309.525,264.618,309.022z"/>
<path style="fill:#F2464F;" d="M256.308,334.413h-10.5l-12.176,52.851l19.727,18.055c0.981,0.021,1.962,0.037,2.948,0.037
	c0.986,0,1.967-0.016,2.948-0.037l19.727-18.055l-12.176-52.851H256.308z"/>
<path style="fill:#D3333C;" d="M266.808,334.413h-10.5h-4.533l12.176,52.851l-15.159,13.874l4.568,4.181
	c0.981,0.021,1.962,0.037,2.948,0.037c0.986,0,1.967-0.016,2.948-0.037l19.727-18.055L266.808,334.413z"/>
<path d="M92.011,420.028l-32.905,32.906l-13.795-13.796c-2.935-2.934-7.695-2.934-10.629,0c-2.935,2.936-2.935,7.695,0,10.63
	l19.11,19.11c1.409,1.409,3.321,2.201,5.315,2.201c1.993,0,3.906-0.792,5.315-2.201l38.219-38.22c2.935-2.936,2.935-7.695,0-10.63
	C99.706,417.095,94.947,417.095,92.011,420.028z"/>
<path d="M443.338,375.159c-17.558,0-33.588,6.654-45.715,17.564l-31.745-31.337c10.805-13.027,19.405-28.106,25.102-44.784
	c1.341-3.929-0.756-8.201-4.684-9.543c-3.927-1.342-8.2,0.757-9.542,4.684c-5.776,16.91-14.889,31.981-26.433,44.62
	c-0.039,0.038-0.081,0.07-0.119,0.109c-0.194,0.197-0.375,0.404-0.543,0.616c-0.84,0.905-1.695,1.795-2.559,2.674
	c-6.882-14.999-17.882-28.464-31.762-38.679c-8.791-6.47-18.556-11.485-28.776-14.892c12.709-9.332,20.979-24.371,20.979-41.311
	v-37.617c0-28.25-22.982-51.232-51.232-51.232c-28.25,0-51.232,22.983-51.232,51.232v37.617c0,16.94,8.27,31.979,20.979,41.311
	c-10.219,3.406-19.985,8.421-28.776,14.892c-13.856,10.197-24.841,23.637-31.725,38.603c-22.554-22.971-36.49-54.432-36.49-89.09
	c0-12.826,1.9-25.48,5.647-37.608c1.226-3.966-0.997-8.175-4.963-9.401c-3.968-1.225-8.175,0.997-9.401,4.963
	c-4.192,13.568-6.317,27.713-6.317,42.046c0,34.116,12.075,65.464,32.17,90.002l-32.259,31.748
	c-12.074-10.684-27.928-17.189-45.281-17.189c-37.727,0-68.42,30.693-68.42,68.42c0,37.728,30.693,68.421,68.42,68.421
	s68.42-30.693,68.42-68.421c0-14.967-4.844-28.816-13.027-40.091l32.277-31.766c2.154,2.129,4.372,4.192,6.656,6.181
	c0.202,0.22,0.409,0.439,0.639,0.637c11.2,9.626,23.754,17.369,37.16,23.049c0.074,0.032,0.147,0.065,0.222,0.096
	c0.336,0.141,0.673,0.275,1.01,0.413c12.015,4.979,24.855,8.354,38.252,9.865c0.108,0.012,0.216,0.025,0.325,0.037
	c0.861,0.095,1.724,0.181,2.59,0.261c0.303,0.028,0.605,0.055,0.909,0.081c0.736,0.063,1.473,0.122,2.213,0.173
	c0.461,0.033,0.924,0.06,1.386,0.088c0.62,0.037,1.242,0.075,1.864,0.104c0.639,0.03,1.28,0.051,1.92,0.073
	c0.473,0.016,0.945,0.036,1.419,0.048c1.136,0.027,2.274,0.043,3.413,0.043c1.731,0,3.457-0.04,5.18-0.102
	c0.259-0.009,0.517-0.015,0.776-0.026c1.58-0.066,3.157-0.163,4.73-0.282c0.408-0.03,0.816-0.062,1.224-0.096
	c1.471-0.123,2.94-0.269,4.405-0.437c0.51-0.059,1.018-0.124,1.526-0.188c1.28-0.162,2.558-0.337,3.831-0.533
	c0.681-0.104,1.36-0.219,2.039-0.335c0.949-0.16,1.895-0.33,2.839-0.51c0.961-0.182,1.918-0.375,2.873-0.576
	c0.861-0.182,1.72-0.37,2.576-0.567c0.787-0.181,1.572-0.366,2.355-0.56c1.077-0.268,2.152-0.549,3.222-0.842
	c0.851-0.232,1.698-0.476,2.543-0.725c0.542-0.159,1.08-0.326,1.621-0.491c1.362-0.418,2.716-0.854,4.061-1.311
	c0.471-0.16,0.941-0.323,1.41-0.488c1.412-0.497,2.814-1.016,4.208-1.556c0.432-0.167,0.865-0.334,1.295-0.505
	c2.699-1.076,5.36-2.233,7.98-3.469c0.418-0.197,0.834-0.401,1.25-0.601c1.353-0.654,2.694-1.328,4.024-2.023
	c0.422-0.221,0.844-0.444,1.265-0.669c1.354-0.726,2.694-1.474,4.023-2.243c0.364-0.21,0.729-0.418,1.09-0.632
	c2.561-1.511,5.07-3.103,7.528-4.77c0.218-0.148,0.436-0.299,0.653-0.449c1.547-1.061,3.073-2.153,4.577-3.275
	c0.076-0.057,0.152-0.113,0.228-0.169c4.927-3.69,9.629-7.681,14.047-11.987l31.919,31.508
	c-7.977,11.189-12.691,24.859-12.691,39.617c0,37.728,30.693,68.421,68.42,68.421s68.42-30.693,68.42-68.421
	C511.758,405.852,481.065,375.159,443.338,375.159z M335.276,370.371c-2.092,1.657-4.231,3.244-6.415,4.759
	c-0.036,0.025-0.073,0.05-0.109,0.075c-1.342,0.929-2.701,1.83-4.074,2.705c-0.218,0.139-0.437,0.277-0.656,0.415
	c-1.208,0.759-2.427,1.496-3.658,2.213c-0.285,0.166-0.57,0.333-0.856,0.496c-1.19,0.68-2.39,1.339-3.599,1.98
	c-0.309,0.163-0.615,0.329-0.925,0.49c-1.343,0.698-2.699,1.369-4.065,2.018c-0.172,0.082-0.344,0.167-0.517,0.249
	c-0.757,0.355-1.516,0.702-2.28,1.042c-0.321,0.142-0.643,0.28-0.965,0.42c-1.235,0.538-2.475,1.059-3.726,1.557
	c-0.384,0.153-0.771,0.302-1.157,0.451c-1.191,0.461-2.386,0.906-3.59,1.331c-0.428,0.151-0.857,0.299-1.287,0.445
	c-1.151,0.393-2.306,0.768-3.468,1.127c-0.491,0.152-0.983,0.302-1.476,0.448c-1.056,0.313-2.118,0.61-3.182,0.896
	c-0.613,0.164-1.227,0.327-1.843,0.482c-0.768,0.193-1.535,0.382-2.307,0.561c-0.927,0.215-1.857,0.42-2.79,0.614
	c-0.353,0.074-0.708,0.143-1.061,0.214l2.788-2.552c1.998-1.828,2.858-4.592,2.25-7.232l-11.557-50.17l7.599-14.763
	C306.217,328.816,326.335,347.194,335.276,370.371z M251.79,341.93h9.037l9.849,42.75l-14.366,13.149l-14.366-13.149L251.79,341.93z
	 M246.389,316.797c0.197-0.027,0.394-0.053,0.591-0.078c0.787-0.102,1.576-0.189,2.366-0.27c0.278-0.028,0.555-0.057,0.833-0.082
	c0.749-0.068,1.499-0.12,2.25-0.167c0.281-0.017,0.56-0.04,0.841-0.055c0.599-0.031,1.201-0.044,1.801-0.063
	c0.412,0.01,0.822,0.031,1.236,0.031c0.414,0,0.824-0.021,1.236-0.031c0.6,0.018,1.202,0.031,1.801,0.063
	c0.281,0.015,0.561,0.038,0.843,0.055c0.751,0.047,1.501,0.1,2.249,0.167c0.278,0.025,0.555,0.055,0.833,0.082
	c0.791,0.079,1.58,0.167,2.367,0.27c0.196,0.025,0.394,0.051,0.59,0.078c0.371,0.051,0.739,0.114,1.108,0.169l-5.111,9.931h-11.831
	l-5.111-9.931C245.651,316.911,246.019,316.848,246.389,316.797z M220.11,245.715c32.527-3.072,44.612-25.441,44.612-25.441
	s7.807,20.561,27.786,24.959v19.649c0,19.486-15.477,35.415-34.782,36.163c-0.438-0.012-0.876-0.032-1.314-0.038
	c-0.068-0.002-0.137-0.002-0.205,0c-0.438,0.006-0.876,0.026-1.314,0.038c-19.305-0.748-34.782-16.677-34.782-36.163v-19.167H220.11
	z M230.267,320.644l7.6,14.763l-11.558,50.17c-0.608,2.64,0.252,5.403,2.25,7.232l2.788,2.552
	c-7.667-1.534-15.166-3.767-22.402-6.669c-0.682-0.275-1.365-0.549-2.041-0.836c-0.123-0.052-0.245-0.106-0.368-0.159
	c-10.525-4.491-20.323-10.362-29.173-17.381C186.313,347.166,206.417,328.81,230.267,320.644z M68.661,496.967
	c-29.438,0-53.387-23.949-53.387-53.388c0-29.437,23.949-53.387,53.387-53.387s53.387,23.95,53.387,53.387
	C122.049,473.017,98.099,496.967,68.661,496.967z M443.338,496.967c-29.438,0-53.387-23.949-53.387-53.388
	c0-29.437,23.949-53.387,53.387-53.387c29.438,0,53.387,23.95,53.387,53.387C496.725,473.017,472.776,496.967,443.338,496.967z"/>
<path d="M466.688,420.028l-32.905,32.906l-13.795-13.796c-2.935-2.934-7.695-2.934-10.63,0c-2.935,2.936-2.935,7.695,0,10.63
	l19.11,19.11c1.409,1.409,3.321,2.201,5.315,2.201c1.993,0,3.906-0.792,5.315-2.201l38.219-38.22c2.935-2.936,2.935-7.695,0-10.63
	C474.382,417.095,469.623,417.095,466.688,420.028z"/>
<path d="M53.792,93.72c1.409,1.409,3.321,2.201,5.315,2.201c1.993,0,3.906-0.792,5.315-2.201L102.64,55.5
	c2.935-2.936,2.935-7.695,0-10.63c-2.935-2.934-7.695-2.934-10.629,0L59.106,77.775L45.311,63.98c-2.935-2.934-7.695-2.934-10.629,0
	c-2.935,2.936-2.935,7.695,0,10.631L53.792,93.72z"/>
<path d="M68.661,136.842c13.701,0,26.464-4.063,37.176-11.026l47.351,46.742c-8.577,9.023-16.055,19.245-22.144,30.52
	c-1.972,3.653-0.61,8.213,3.042,10.185c3.653,1.974,8.213,0.611,10.185-3.041c22.277-41.246,65.206-66.869,112.037-66.869
	c70.162,0,127.244,57.082,127.244,127.245c0,5.932-0.412,11.895-1.224,17.726c-0.572,4.112,2.296,7.909,6.408,8.482
	c0.352,0.049,0.701,0.072,1.046,0.072c3.691,0,6.911-2.721,7.435-6.481c0.907-6.513,1.367-13.175,1.367-19.798
	c0-38.27-15.192-73.053-39.857-98.651l47.009-46.404c10.799,7.133,23.72,11.3,37.602,11.3c37.727,0,68.42-30.693,68.42-68.42
	S481.065,0,443.338,0s-68.42,30.693-68.42,68.42c0,18.418,7.329,35.148,19.206,47.461l-46.39,45.794
	c-24.744-20.803-56.644-33.355-91.424-33.355c-34.383,0-66.884,12.353-92.202,33.891l-46.572-45.972
	c12.08-12.345,19.547-29.222,19.547-47.817C137.082,30.693,106.389,0,68.661,0S0.241,30.693,0.241,68.42
	S30.934,136.842,68.661,136.842z M389.95,68.42c0-29.438,23.949-53.387,53.387-53.387c29.438,0,53.387,23.949,53.387,53.387
	s-23.949,53.387-53.387,53.387C413.899,121.809,389.95,97.859,389.95,68.42z M68.661,15.033c29.438,0,53.387,23.949,53.387,53.387
	s-23.949,53.387-53.387,53.387S15.274,97.858,15.274,68.42S39.223,15.033,68.661,15.033z"/>
<path d="M428.468,93.72c1.409,1.409,3.321,2.201,5.315,2.201c1.993,0,3.906-0.792,5.315-2.201l38.219-38.22
	c2.935-2.936,2.935-7.695,0-10.63c-2.935-2.934-7.695-2.934-10.629,0l-32.905,32.906L419.988,63.98
	c-2.935-2.934-7.695-2.934-10.63,0c-2.935,2.936-2.935,7.695,0,10.631L428.468,93.72z"/>
<g>
</g>
<g>
</g>
<g>
</g>
<g>
</g>
<g>
</g>
<g>
</g>
<g>
</g>
<g>
</g>
<g>
</g>
<g>
</g>
<g>
</g>
<g>
</g>
<g>
</g>
<g>
</g>
<g>
</g>
</svg>
