<?xml version="1.0" encoding="iso-8859-1"?>
<!-- Generator: Adobe Illustrator 19.0.0, SVG Export Plug-In . SVG Version: 6.00 Build 0)  -->
<svg version="1.1" id="Layer_1" xmlns="http://www.w3.org/2000/svg" xmlns:xlink="http://www.w3.org/1999/xlink" x="0px" y="0px"
	 viewBox="0 0 511.999 511.999" style="enable-background:new 0 0 511.999 511.999;" xml:space="preserve">
<path style="fill:#2D2D30;" d="M419.856,233.115c-46.747,0-84.643,37.896-84.643,84.643s37.896,84.643,84.643,84.643
	s84.643-37.896,84.643-84.643S466.604,233.115,419.856,233.115z M419.857,373.271c-30.61,0-55.513-24.902-55.513-55.513
	c0-30.609,24.902-55.512,55.513-55.512c30.609,0,55.512,24.902,55.512,55.512C475.369,348.368,450.466,373.271,419.857,373.271z"/>
<path style="fill:#1D1D1F;" d="M419.857,247.681c-38.641,0-70.079,31.437-70.079,70.078s31.438,70.079,70.079,70.079
	s70.078-31.438,70.078-70.079S458.498,247.681,419.857,247.681z M419.857,373.27c-30.61,0-55.513-24.902-55.513-55.513
	c0-30.609,24.902-55.512,55.513-55.512c30.609,0,55.512,24.902,55.512,55.512C475.369,348.367,450.466,373.27,419.857,373.27z"/>
<circle style="fill:#3E3D42;" cx="419.853" cy="317.758" r="22.894"/>
<path style="fill:#57565C;" d="M308.762,330.472h93.773c12.259,0,23.952-5.158,32.219-14.211l6.683-7.319
	c5.844-6.401,1.303-16.696-7.364-16.696h-85.424L308.762,330.472z"/>
<g>
	<path style="fill:#3E3D42;" d="M434.072,292.247h-85.423l-19.944,19.113h110.523l2.207-2.417
		C447.28,302.542,442.739,292.247,434.072,292.247z"/>
	<path style="fill:#3E3D42;" d="M370.384,313.762h-60.6c-7.993,0-14.531,6.539-14.531,14.531v12.351
		c0,7.992,6.539,14.531,14.531,14.531h60.6c7.993,0,14.531-6.539,14.531-14.531v-12.351
		C384.915,320.301,378.377,313.762,370.384,313.762z"/>
</g>
<path style="fill:#2D2D30;" d="M309.784,313.762c-7.993,0-14.531,6.539-14.531,14.531v12.351c0,7.992,6.539,14.531,14.531,14.531
	h29.086l21.022-31.717c2.03-3.062,3.522-6.333,4.5-9.697L309.784,313.762L309.784,313.762z"/>
<path style="fill:#57565C;" d="M435.477,198.591c0,0,15.476,47.787-89.256,102.549c0.106,0.789-98.194-47.681-98.194-47.681
	l42.866-54.867L435.477,198.591L435.477,198.591z"/>
<path style="fill:#3E3D42;" d="M435.477,198.591H290.894l-42.866,54.867c0,0,98.3,48.47,98.194,47.681
	c6.225-3.255,12.012-6.484,17.417-9.681c-2.485-6.856-7.057-13.016-13.519-17.387l-41.63-28.161
	c-6.611-4.412-0.094-11.049-0.094-11.049c1.128-0.791,2.474-1.216,3.852-1.216h103.29c4.379,0,8.705-0.399,12.939-1.156
	C439.775,211.889,435.477,198.591,435.477,198.591z"/>
<circle style="fill:#898890;" cx="337.755" cy="287.968" r="42.503"/>
<path style="fill:#787680;" d="M330.695,275.618c0-11.624,4.671-22.154,12.232-29.827c-1.697-0.206-3.42-0.324-5.172-0.324
	c-23.474,0-42.503,19.029-42.503,42.503s19.029,42.503,42.503,42.503c11.85,0,22.563-4.854,30.271-12.676
	C346.993,315.243,330.695,297.34,330.695,275.618z"/>
<path style="fill:#2D2D30;" d="M93.635,233.115c-46.747,0-84.643,37.896-84.643,84.643s37.896,84.643,84.643,84.643
	s84.643-37.896,84.643-84.643S140.382,233.115,93.635,233.115z M93.635,373.271c-30.61,0-55.513-24.902-55.513-55.513
	c0-30.609,24.902-55.512,55.513-55.512c30.609,0,55.512,24.902,55.512,55.512C149.147,348.368,124.245,373.271,93.635,373.271z"/>
<path style="fill:#1D1D1F;" d="M93.635,247.681c-38.641,0-70.079,31.437-70.079,70.078s31.438,70.079,70.079,70.079
	s70.078-31.438,70.078-70.079S132.276,247.681,93.635,247.681z M93.635,373.27c-30.61,0-55.513-24.902-55.513-55.513
	c0-30.609,24.902-55.512,55.513-55.512c30.609,0,55.512,24.902,55.512,55.512C149.147,348.367,124.245,373.27,93.635,373.27z"/>
<polygon style="fill:#3E3D42;" points="222.598,163.366 128.872,150.288 125.24,204.053 198.622,214.224 "/>
<polygon style="fill:#2D2D30;" points="216.422,176.468 127.938,164.121 125.24,204.053 198.622,214.224 "/>
<path style="fill:#FF3F62;" d="M326.495,174.264h27.632c22.482,0,44.215-8.082,61.236-22.77l10.075-8.695
	c10.402-8.978,24.503-12.372,37.852-9.113l25.194,6.152c6.315,1.543,7.932,9.771,2.668,13.588l-5.869,4.255
	c-6.49,4.706-11.908,10.734-15.895,17.687l-6.581,11.475c-9.713,16.936-27.745,27.381-47.269,27.381H295.253L326.495,174.264z"/>
<path style="fill:#FF0C38;" d="M469.387,175.368c3.815-6.652,8.95-12.443,15.069-17.054l-16.359-3.994
	c-16.207-3.957-33.327,0.164-45.957,11.064l-12.233,10.558c-20.665,17.834-47.052,27.646-74.349,27.646h-31.988l-8.317,10.638
	h120.284c19.524,0,37.556-10.446,47.269-27.381L469.387,175.368z"/>
<path style="fill:#787680;" d="M79.468,224.397c0,0-51.665-0.58-71.454,47.554c-3.019,7.343,4.552,14.58,11.749,11.228l89.494-41.68
	L79.468,224.397z"/>
<circle style="fill:#3E3D42;" cx="93.633" cy="317.758" r="22.894"/>
<path style="fill:#787680;" d="M96.343,241.498l-6.84,72.195c-0.535,6.86,6.038,12.084,12.6,10.015l58.904-18.569l-14.242-49.398
	L96.343,241.498z"/>
<path style="fill:#3E3D42;" d="M354.127,174.264h-27.632l-31.241,39.96h76.629c21.225-7.948,56.523-27.808,53.556-71.426
	l-10.075,8.695C398.342,166.183,376.608,174.264,354.127,174.264z"/>
<path style="fill:#2D2D30;" d="M422.139,165.384l-12.233,10.558c-20.665,17.834-47.052,27.646-74.349,27.646h-31.988l-8.317,10.638
	h76.629c17.386-6.51,44.21-21.018,51.715-50.025C423.109,164.592,422.614,164.973,422.139,165.384z"/>
<g>
	<path style="fill:#57565C;" d="M146.765,255.741l-50.423-14.244l-2.702,28.516l13.46,5.213c7.142,2.766,12.6,8.831,14.602,16.224
		l6.504,24.029l32.801-10.34L146.765,255.741z"/>
	<path style="fill:#57565C;" d="M79.468,224.396c0,0-27.319-0.3-49.836,18.042c3.438,3.122,7.485,5.681,12.061,7.454l27.046,10.476
		l40.517-18.87L79.468,224.396z"/>
</g>
<path style="fill:#FF3F62;" d="M137.965,121.433c-24.493,4.564-76.131,21.596-100.451,84.92
	c-3.878,10.097,1.105,21.523,11.192,25.43l65.408,25.334c12.932,5.01,22.711,15.873,26.334,29.261l15.816,58.432
	c2.701,9.977,11.755,16.907,22.091,16.907h114.742c11.328,0,21.902-5.678,28.16-15.12l22.446-33.865
	c4.955-7.476,2.962-17.547-4.466-22.572l-54.701-37.003c-8.854-5.989-8.964-18.99-0.213-25.128l57.971-40.663
	c8.373-5.873,4.775-19.004-5.423-19.789l-109.952-8.458c-6.972-0.536-13.884,1.629-19.304,6.047l-24.928,20.32
	c-2.812,2.293-6.45,3.313-10.044,2.819l-23.887-3.284c-7.836-1.077-12.928-8.809-10.826-16.434l10.001-36.254
	C149.641,126.134,144.284,120.256,137.965,121.433z"/>
<path style="fill:#FF0C38;" d="M187.876,273.95c-4.823-17.816-17.835-32.275-35.046-38.941l-87.047-33.715
	c-8.72-3.377-14.569-10.978-16.186-19.573c-4.487,7.314-8.57,15.487-12.082,24.63c-3.878,10.097,1.105,21.523,11.192,25.43
	l65.408,25.334c12.932,5.009,22.711,15.873,26.334,29.261l15.816,58.432c2.701,9.977,11.755,16.907,22.091,16.907h35.396
	c-2.159-2.952-3.829-6.312-4.828-10.001L187.876,273.95z"/>
<path style="fill:#D1E7F8;" d="M51.628,178.511L51.628,178.511c0,0,59.783,11.515,73.612-54.052
	C103.754,130.67,73.423,145.089,51.628,178.511z"/>
<path style="fill:#787680;" d="M116.885,109.601L116.885,109.601c-6.993,0-12.714,5.722-12.714,12.714v26.156
	c0,6.993,5.722,12.714,12.714,12.714l0,0c6.993,0,12.714-5.722,12.714-12.714v-26.156
	C129.599,115.323,123.877,109.601,116.885,109.601z"/>
<path style="fill:#57565C;" d="M116.884,148.472v-26.156c0-4.679,2.568-8.778,6.357-10.986c-1.875-1.092-4.042-1.729-6.357-1.729
	l0,0c-6.993,0-12.714,5.722-12.714,12.714v26.156c0,6.993,5.722,12.714,12.714,12.714l0,0c2.314,0,4.483-0.637,6.357-1.729
	C119.452,157.249,116.884,153.151,116.884,148.472z"/>
<path style="fill:#FF0C38;" d="M114.114,257.116c12.932,5.009,22.711,15.873,26.334,29.261l15.816,58.432
	c2.701,9.977,11.755,16.907,22.091,16.907h114.742c11.328,0,21.902-5.678,28.16-15.12l22.446-33.865l-243.671-61.069
	L114.114,257.116z"/>
<path style="fill:#D80027;" d="M187.876,273.95c-0.027-0.1-0.062-0.197-0.09-0.297l-87.754-21.992l14.083,5.455
	c12.932,5.009,22.711,15.873,26.334,29.261l15.816,58.432c2.701,9.977,11.755,16.907,22.091,16.907h35.397
	c-2.159-2.952-3.829-6.312-4.828-10.001L187.876,273.95z"/>
<path d="M28.921,359.76c-2.261-3.473-6.907-4.456-10.38-2.198c-3.473,2.26-4.457,6.907-2.198,10.38
	c2.443,3.755,5.187,7.365,8.154,10.733c1.482,1.683,6.51,4.381,10.59,0.666c3.064-2.79,3.406-7.482,0.666-10.59
	C33.265,365.931,30.966,362.906,28.921,359.76z"/>
<path d="M439.13,227.643c1.786-4.413,2.95-8.516,3.668-12.261c10.941-5.366,20.269-13.916,26.515-24.806l6.581-11.476
	c3.483-6.073,8.124-11.236,13.792-15.345l5.869-4.256c4.83-3.502,7.115-9.314,5.966-15.167c-1.149-5.853-5.464-10.367-11.258-11.782
	l-25.195-6.152c-15.673-3.825-32.32,0.182-44.534,10.722l-10.075,8.695c-12.337,10.648-27.376,17.559-43.492,19.986
	c-4.097,0.616-6.918,4.439-6.301,8.536c0.617,4.098,4.443,6.925,8.536,6.301c17.477-2.633,33.87-9.766,47.689-20.692
	c-5.283,25.346-26.979,39.272-46.405,46.778h-42.731l18.845-13.219c6.44-4.518,9.259-12.339,7.18-19.927s-8.491-12.88-16.335-13.484
	l-109.952-8.458c-5.588-0.427-11.106,0.485-16.155,2.615l-59.379-8.313l3.204-11.615c1.497-5.431,0.149-11.183-3.697-15.302
	c-6.589-7.056-15.65-4.809-16.037-4.733c-3.113-7.163-10.25-12.19-18.545-12.19c-11.148,0-20.217,9.069-20.217,20.218v5.511
	c-30.299,15.775-53.133,41.923-66.156,75.834c-3.52,9.164-1.746,19.09,3.813,26.359c-15.002,9.082-25.268,22.924-33.25,39.076
	c-4.079,8.257,4.751,18.746,5.251,19.125c-3.211,9.477-4.837,19.384-4.837,29.536c0,10.321,1.696,20.458,5.04,30.127
	c1.073,3.105,5.805,5.994,9.542,4.639c3.895-1.413,5.993-5.627,4.639-9.542c-2.797-8.089-4.215-16.575-4.215-25.223
	c0-9.387,1.671-18.511,4.939-27.179c0.503-0.177,21.212-9.782,21.212-9.782c-7.554,10.391-12.025,23.161-12.025,36.961
	c0,34.747,28.268,63.015,63.015,63.015c16.42,0,31.974-6.302,43.798-17.746c4.782-4.628,8.737-9.894,11.796-15.607
	c1.561,5.291,4.485,9.91,8.33,13.522c-14.278,21.072-38.294,33.957-63.924,33.957c-15.895,0-31.156-4.795-44.135-13.864
	c-3.396-2.374-8.075-1.544-10.447,1.853c-2.374,3.396-1.545,8.073,1.853,10.447c15.511,10.841,33.744,16.57,52.73,16.57
	c31.064,0,60.136-15.846,77.089-41.671c2.453,0.639,5.012,0.983,7.633,0.983h114.741c8.046,0,15.742-2.334,22.292-6.538h24.009
	c16.309,29.178,46.949,47.226,80.458,47.226c50.809,0,92.145-41.336,92.145-92.146C512.002,273.992,481.19,236.584,439.13,227.643z
	 M413.108,197.122c13.671-14.046,20.384-31.111,19.992-50.776c8.203-5.754,18.577-7.773,28.41-5.371l25.254,6.158
	c0.029,0.038,0.05,0.145-0.016,0.219l-5.869,4.255c-7.397,5.363-13.453,12.101-18,20.028l-6.581,11.476
	c-8.354,14.565-23.972,23.612-40.761,23.612h-13.6C405.803,203.911,409.591,200.735,413.108,197.122z M306.733,221.728h108.805
	c3.407,0,6.778-0.285,10.083-0.833c-4.63,12.044-15.726,28.889-41.595,48.132c-7.482-18.206-25.398-31.063-46.27-31.063
	c-14.318,0-27.956,6.226-37.394,16.839l-11.623-7.863c-2.146-1.45-3.388-3.768-3.409-6.357c-0.022-2.59,1.181-4.928,3.301-6.414
	C288.631,234.167,306.617,221.728,306.733,221.728z M343.441,283.944l-30.499-20.632c6.524-6.544,15.462-10.343,24.813-10.343
	c19.299,0,35.001,15.701,35.001,35.001c0,16.214-11.085,29.885-26.073,33.842l3.273-4.939
	C357.155,306.015,354.232,291.243,343.441,283.944z M386.348,299.749h47.724c1.4,0,2.018,0.923,2.26,1.473
	c0.243,0.55,0.509,1.628-0.435,2.661l-6.684,7.319c-6.827,7.479-16.552,11.768-26.678,11.768h-10.772
	c-1.322-5.338-4.593-9.955-9.123-12.983C384.232,306.755,385.48,303.326,386.348,299.749z M336.01,337.918
	c0.582,0.02,25.274-1.21,38.033-15.595c2.03,1.263,3.369,3.517,3.369,5.97v12.352c0,3.875-3.152,7.028-7.027,7.028h-40.841
	L336.01,337.918z M392.418,340.645v-2.669h4.76c5.734,6.414,14.011,10.179,22.68,10.179c6.089,0,11.968-1.797,17-5.196
	c8.389-5.666,13.396-15.087,13.396-25.2c0-2.421-0.289-4.807-0.85-7.132c2.617-4.702,2.92-10.329,0.657-15.459
	c-2.836-6.429-8.962-10.422-15.988-10.422h-46.185c6.247-4.409,11.82-8.745,16.785-12.991l0.002,0.009
	c4.666-1.48,10.239-2.014,15.182-2.014c26.473,0,48.009,21.536,48.009,48.009s-21.536,48.01-48.009,48.01
	c-11.732,0-23.016-4.341-31.75-12.051C390.813,350.058,392.418,345.535,392.418,340.645z M193.614,166.896l-15.667,12.771
	c-1.194,0.974-2.756,1.412-4.282,1.202l-23.886-3.284c-2.18-0.3-3.377-1.669-3.897-2.457c-0.52-0.789-1.304-2.429-0.719-4.551
	l2.774-10.055L193.614,166.896z M140.417,129.173c0.308,0.335,0.402,0.726,0.283,1.161l-3.599,13.044v-14.124
	c0.75-0.154,1.501-0.308,2.24-0.446C139.5,128.78,139.974,128.692,140.417,129.173z M111.672,122.316
	c0-2.825,2.387-5.213,5.212-5.213c2.825,0,5.212,2.388,5.212,5.213v26.155c0,2.825-2.387,5.213-5.212,5.213
	c-2.825,0-5.212-2.388-5.212-5.213V122.316z M96.667,145.029c0,0-0.139,9.117,2.671,13.446
	c-10.946,9.911-24.037,12.722-33.516,13.253C74.511,161.088,84.81,152.172,96.667,145.029z M16.595,276.377
	c-0.226,0.104-0.753,0.349-1.354-0.226c-0.604-0.577-0.374-1.137-0.287-1.348c6.578-16.001,17.739-27.826,33.167-35.203
	l25.901,10.031L16.595,276.377z M88.473,327.922c3.089,2.455,6.866,3.741,10.705,3.74c0.37,0,0.74-0.018,1.111-0.042
	c-2.031,0.978-4.29,1.529-6.654,1.529c-8.486,0-15.391-6.904-15.391-15.392c0-4.106,1.644-7.913,4.353-10.714l-0.563,5.942
	c-0.004,0.041-0.007,0.082-0.011,0.123C81.578,318.82,83.989,324.357,88.473,327.922z M99.846,316.554
	c-0.975,0.305-1.694-0.105-2.037-0.378c-0.338-0.269-0.891-0.865-0.829-1.858l5.099-53.817l9.325,3.611
	c0.005,0.002,0.01,0.003,0.014,0.005c10.658,4.133,18.801,13.186,21.788,24.22l4.414,16.307L99.846,316.554z M93.635,365.768
	c-26.473,0-48.01-21.537-48.01-48.01c0-23.9,17.556-43.771,40.449-47.409l-1.751,18.475c-12.391,3.99-21.084,15.67-21.084,28.933
	c0,16.761,13.636,30.397,30.396,30.397c14.014,0,26.263-9.702,29.539-23.222l18.371-5.792l0.074,0.273
	c-0.001,0.016-0.004,0.032-0.004,0.049C140.706,345.428,119.632,365.768,93.635,365.768z M293.097,354.211H178.357
	c-6.932,0-13.038-4.673-14.85-11.364l-15.817-58.431c-1.434-5.299-3.726-10.263-6.694-14.755l176.51,44.237
	c4.933,0.801,8.248-2.048,9.102-5.454c1.007-4.019-1.435-8.095-5.454-9.102l-218.841-54.844l-50.895-19.713
	c-6.214-2.406-9.309-9.468-6.898-15.743c3.092-8.052,6.733-15.553,10.906-22.502c1.815,0.152,31.435,3.45,55.827-18.666
	c8.119,1.61,17.05-1.844,20.756-6.031l-1.309,4.746c-1.577,5.719-0.61,11.84,2.653,16.795c3.264,4.954,8.506,8.259,14.384,9.066
	l23.886,3.284c5.631,0.779,11.397-0.841,15.806-4.436l24.928-20.32c3.944-3.217,8.902-4.772,13.989-4.382l109.952,8.458
	c2.074,0.16,2.779,1.628,3.015,2.489c0.235,0.86,0.377,2.482-1.324,3.677l-57.971,40.663c-6.131,4.3-9.753,11.339-9.69,18.826
	c0.064,7.488,3.805,14.463,10.007,18.657l54.702,37.004c4.001,2.707,5.086,8.186,2.416,12.212l-22.446,33.865
	C310.123,349.815,301.933,354.211,293.097,354.211z M419.857,394.899c-25.134,0-48.344-12.128-62.725-32.221h13.253
	c1.645,0,3.245-0.187,4.788-0.53c11.805,11.875,27.897,18.625,44.684,18.625c34.746,0,63.014-28.269,63.014-63.015
	c0-34.06-27.168-61.877-60.969-62.962c3.963-4.578,7.258-9,9.965-13.23c37.303,5.822,65.131,38.133,65.131,76.194
	C496.997,360.293,462.391,394.899,419.857,394.899z"/>
<g>
</g>
<g>
</g>
<g>
</g>
<g>
</g>
<g>
</g>
<g>
</g>
<g>
</g>
<g>
</g>
<g>
</g>
<g>
</g>
<g>
</g>
<g>
</g>
<g>
</g>
<g>
</g>
<g>
</g>
</svg>
