<?xml version="1.0" encoding="iso-8859-1"?>
<!-- Generator: Adobe Illustrator 19.0.0, SVG Export Plug-In . SVG Version: 6.00 Build 0)  -->
<svg version="1.1" id="Capa_1" xmlns="http://www.w3.org/2000/svg" xmlns:xlink="http://www.w3.org/1999/xlink" x="0px" y="0px"
	 viewBox="0 0 480 480" style="enable-background:new 0 0 480 480;" xml:space="preserve">
<g>
	<polygon style="fill:#BD8931;" points="135.997,176 127.997,304 183.997,288 207.997,248 159.997,176 	"/>
	<polygon style="fill:#BD8931;" points="343.997,176 351.997,304 295.997,288 271.997,248 319.997,176 	"/>
</g>
<path style="fill:#FBDDD8;" d="M319.997,128v42.936c0,18.952-5.608,37.48-16.12,53.248l-1.624,2.44
	C293.341,239.976,278.357,248,262.309,248h-41.688c-17.88,0-34.576-8.936-44.496-23.816l0,0
	c-10.52-15.768-16.128-34.296-16.128-53.248V96L319.997,128z"/>
<path style="fill:#F2BA24;" d="M343.997,88c0-44.184-35.816-80-80-80h-48c-44.184,0-80,35.816-80,80v40h104
	c0,26.512,21.488,48,48,48h32v-48h24V88z"/>
<g>
	<path style="fill:#FBDDD8;" d="M159.997,176h-16c-8.84,0-16-7.16-16-16v-16c0-8.84,7.16-16,16-16h16V176z"/>
	<path style="fill:#FBDDD8;" d="M335.997,176h-16v-48h16c8.84,0,16,7.16,16,16v16C351.997,168.84,344.837,176,335.997,176z"/>
</g>
<polygon style="fill:#F2BA24;" points="351.997,352 295.997,288 239.997,431.112 183.997,288 127.997,352 175.997,352 151.997,400 
	191.997,400 223.997,472 255.997,472 287.997,400 327.997,400 303.997,352 "/>
<path style="fill:#BF26B8;" d="M183.997,288l24.76,21.224c17.976,15.408,44.504,15.408,62.472,0L295.997,288l-18.752,47.92
	c-13.264,33.896-61.232,33.896-74.496,0L183.997,288z"/>
<g>
	<polygon style="fill:#F7F7F7;" points="295.997,288 351.997,352 303.997,352 327.997,400 287.997,400 255.997,472 407.997,472 
		423.997,328 	"/>
	<path style="fill:#F7F7F7;" d="M295.997,288l-18.752,47.92c-13.264,33.896-61.232,33.896-74.496,0L183.997,288l56,143.112
		L295.997,288z"/>
	<polygon style="fill:#F7F7F7;" points="151.997,400 175.997,352 127.997,352 183.997,288 55.997,328 71.997,472 223.997,472 
		191.997,400 	"/>
</g>
<path style="fill:#FBDDD8;" d="M271.237,309.224L295.997,288l-24-40h-64l-24,40l24.76,21.224
	C226.733,324.632,253.261,324.632,271.237,309.224z"/>
<path d="M426.381,320.36l-66.648-20.832l-7.616-121.872c4.808-4.392,7.88-10.648,7.88-17.656v-16c0-7.064-3.128-13.36-8-17.76V88
	c0-48.52-39.48-88-88-88h-48c-48.52,0-88,39.48-88,88v38.24c-4.872,4.392-8,10.696-8,17.76v16c0,7.008,3.072,13.264,7.88,17.656
	l-7.616,121.872L53.613,320.36c-3.656,1.144-5.992,4.712-5.56,8.52l16,144c0.44,4.056,3.864,7.12,7.944,7.12h152h32h152
	c4.08,0,7.504-3.064,7.952-7.12l16-144C432.373,325.08,430.037,321.504,426.381,320.36z M296.837,355.576L315.053,392h-27.056
	c-3.16,0-6.024,1.864-7.312,4.752L250.797,464h-21.6l-29.888-67.248c-1.288-2.888-4.152-4.752-7.312-4.752h-27.056l18.208-36.424
	c1.24-2.48,1.104-5.424-0.352-7.784c-1.456-2.352-4.024-3.792-6.8-3.792h-30.368l35.72-40.824l51.2,130.84
	c1.2,3.064,4.16,5.088,7.448,5.088s6.248-2.016,7.448-5.088l37.152-94.936c0.008-0.024,0.016-0.04,0.024-0.064l14.024-35.84
	L334.365,344h-30.368c-2.776,0-5.344,1.44-6.808,3.792C295.733,350.152,295.605,353.096,296.837,355.576z M167.997,128h64
	c0,30.88,25.12,56,56,56h23.024c-1.904,12.736-6.576,24.904-13.816,35.752l-1.624,2.44C288.157,233.336,275.717,240,262.309,240
	h-41.688c-15.24,0-29.384-7.568-37.84-20.256c-9.672-14.496-14.784-31.376-14.784-48.808V128z M343.997,144v16c0,4.408-3.592,8-8,8
	h-8v-32h8C340.405,136,343.997,139.592,343.997,144z M220.621,256h41.688h5.16l18.192,30.32l-19.632,16.832
	c-15.088,12.928-36.984,12.928-52.064,0l-19.632-16.832L212.525,256H220.621z M260.517,346.072c-0.632,0.52-1.312,0.928-1.968,1.392
	c-0.648,0.456-1.272,0.968-1.936,1.36c-0.88,0.52-1.784,0.92-2.688,1.336c-0.48,0.224-0.944,0.512-1.432,0.712
	c-1.304,0.536-2.632,0.96-3.952,1.32c-0.088,0.024-0.176,0.064-0.264,0.088c-2.832,0.736-5.648,1.072-8.28,1.072
	c-3.952,0-8.304-0.752-12.512-2.48c-0.296-0.12-0.576-0.296-0.864-0.432c-1.096-0.488-2.192-0.992-3.256-1.624
	c-0.504-0.296-0.968-0.696-1.456-1.024c-0.824-0.552-1.664-1.08-2.448-1.728c-0.56-0.464-1.064-1.048-1.6-1.56
	c-0.664-0.64-1.352-1.224-1.968-1.936c-0.544-0.624-1.008-1.384-1.512-2.072c-0.536-0.736-1.112-1.416-1.608-2.224
	c-0.48-0.792-0.856-1.72-1.28-2.584c-0.432-0.88-0.92-1.688-1.296-2.648l-7.08-18.088l0.424,0.36
	c6.256,5.36,13.384,8.936,20.808,11.12c5.12,1.504,10.352,2.456,15.632,2.456c12.944,0,25.888-4.52,36.448-13.576l0.424-0.36
	l-7.08,18.096c-0.352,0.904-0.816,1.664-1.216,2.496c-0.448,0.92-0.856,1.896-1.36,2.736c-0.432,0.72-0.952,1.312-1.424,1.976
	c-0.56,0.784-1.088,1.624-1.696,2.328c-0.52,0.6-1.096,1.072-1.64,1.616C261.805,344.824,261.189,345.512,260.517,346.072z
	 M223.301,366.488c0.32,0.112,0.672,0.152,0.992,0.256c1.936,0.648,3.944,1.144,5.984,1.544c0.488,0.096,0.944,0.24,1.432,0.32
	c2.696,0.448,5.448,0.736,8.28,0.736s5.584-0.288,8.28-0.736c0.488-0.08,0.952-0.232,1.44-0.32c2.04-0.4,4.048-0.896,5.984-1.544
	c0.32-0.104,0.68-0.144,0.992-0.256l-16.688,42.672L223.301,366.488z M343.381,294.424l-42.096-13.152l-17.712-29.52
	c10.16-4.176,19.032-11.256,25.328-20.696l1.624-2.44c8.992-13.48,14.592-28.712,16.592-44.624h8.88c0.168,0,0.32-0.048,0.48-0.048
	L343.381,294.424z M143.997,88c0-39.696,32.304-72,72-72h48c39.696,0,72,32.304,72,72v32h-16c-4.416,0-8,3.584-8,8v40h-24
	c-22.056,0-40-17.944-40-40v-8c0-4.416-3.584-8-8-8h-72V96h-16v24h-8V88z M151.997,168h-8c-4.408,0-8-3.592-8-8v-16
	c0-4.408,3.592-8,8-8h8V168z M143.517,183.952c0.16,0,0.312,0.048,0.48,0.048h8.872c2,15.912,7.6,31.144,16.592,44.624
	c6.808,10.208,16.376,17.896,27.328,22.504l-18.088,30.144l-42.096,13.152L143.517,183.952z M64.677,333.664l94.592-29.56
	l-37.288,42.616c-2.064,2.36-2.56,5.72-1.264,8.576c1.288,2.872,4.136,4.704,7.28,4.704h35.056l-18.208,36.424
	c-1.24,2.48-1.104,5.424,0.352,7.784c1.456,2.352,4.024,3.792,6.8,3.792h34.8l24.888,56H79.157L64.677,333.664z M400.837,464
	H268.309l24.888-56h34.8c2.776,0,5.344-1.44,6.808-3.792c1.456-2.36,1.592-5.304,0.352-7.784L316.941,360h35.056
	c3.144,0,5.992-1.832,7.288-4.696c1.296-2.856,0.8-6.208-1.264-8.576l-37.288-42.616l94.592,29.56L400.837,464z"/>
<polygon points="351.997,408 351.997,424 311.997,424 311.997,440 383.997,440 383.997,424 367.997,424 367.997,408 "/>
<g>
</g>
<g>
</g>
<g>
</g>
<g>
</g>
<g>
</g>
<g>
</g>
<g>
</g>
<g>
</g>
<g>
</g>
<g>
</g>
<g>
</g>
<g>
</g>
<g>
</g>
<g>
</g>
<g>
</g>
</svg>
