<?xml version="1.0" encoding="iso-8859-1"?>
<!-- Generator: Adobe Illustrator 19.0.0, SVG Export Plug-In . SVG Version: 6.00 Build 0)  -->
<svg version="1.1" id="Layer_1" xmlns="http://www.w3.org/2000/svg" xmlns:xlink="http://www.w3.org/1999/xlink" x="0px" y="0px"
	 viewBox="0 0 512 512" style="enable-background:new 0 0 512 512;" xml:space="preserve">
<path style="fill:#EFEEEE;" d="M297.572,343l9.783,95H204.642l9.783-95H297.572z"/>
<path style="fill:#003582;" d="M363.202,463.076V481H148.796v-17.924c0-13.849,11.227-25.076,25.076-25.076h164.253
	C351.975,438,363.202,449.227,363.202,463.076z"/>
<path style="fill:#0092E0;" d="M466,343H46c-19.882,0-36-16.118-36-36V67c0-19.882,16.118-36,36-36h420c19.882,0,36,16.118,36,36
	v240C502,326.882,485.882,343,466,343z"/>
<rect x="10" y="65.17" style="fill:#FFFFFF;" width="492" height="241.83"/>
<path d="M120,317h-0.131c-5.523,0-10-4.477-10-10s4.477-10,10-10H120c5.523,0,10,4.477,10,10S125.523,317,120,317z"/>
<path d="M466,21H46C20.636,21,0,41.636,0,67v240c0,25.364,20.636,46,46,46h157.343l-7.723,75h-21.747
	c-19.341,0-35.076,15.735-35.076,35.076V481c0,5.523,4.477,10,10,10h214.406c5.523,0,10-4.477,10-10v-17.924
	c0-19.341-15.735-35.076-35.076-35.076h-21.748l-7.724-75H466c25.364,0,46-20.636,46-46V67C512,41.636,491.364,21,466,21z M46,41
	h420c10.076,0,18.826,5.766,23.14,14.168H22.86C27.174,46.766,35.924,41,46,41z M353.202,463.076V471H158.796v-7.924
	c0-8.313,6.763-15.076,15.076-15.076h30.771h102.712h30.771C346.438,448,353.202,454.763,353.202,463.076z M296.272,428h-80.547
	l7.723-75h65.101L296.272,428z M466,333H297.572h-83.146H46c-10.794,0-20.071-6.614-23.997-16h66.509c5.523,0,10-4.477,10-10
	s-4.477-10-10-10H20V75.168h472V297H152.352c-5.523,0-10,4.477-10,10s4.477,10,10,10h337.646C486.071,326.386,476.794,333,466,333z"
	/>
<g>
	<circle style="fill:#E23225;" cx="81" cy="171.96" r="17"/>
	<circle style="fill:#E23225;" cx="168.47" cy="257.2" r="17"/>
	<circle style="fill:#E23225;" cx="211.84" cy="126.33" r="17"/>
	<circle style="fill:#E23225;" cx="153.26" cy="185.03" r="24"/>
</g>
<path d="M211.838,99.327c-14.888,0-27,12.112-27,27c0,3.818,0.801,7.451,2.237,10.747l-17.912,17.912
	c-4.748-2.523-10.158-3.959-15.899-3.959c-13.118,0-24.517,7.473-30.185,18.381l-15.619-2.823
	c-2.5-12.32-13.414-21.622-26.461-21.622c-14.888,0-27,12.112-27,27s12.112,27,27,27c9.639,0,18.109-5.081,22.887-12.701
	l15.629,2.825c1.881,15.726,14.53,28.189,30.345,29.769l3.246,16.158c-7.026,4.88-11.639,13.003-11.639,22.186
	c0,14.888,12.112,27,27,27s27-12.112,27-27c0-13.482-9.933-24.687-22.865-26.683l-3.135-15.606
	c10.592-5.766,17.796-17,17.796-29.884c0-5.741-1.436-11.151-3.959-15.899l17.96-17.96c3.249,1.388,6.822,2.158,10.572,2.158
	c14.888,0,27-12.112,27-27S226.726,99.327,211.838,99.327z M81,178.964c-3.86,0-7-3.14-7-7s3.14-7,7-7s7,3.14,7,7
	S84.86,178.964,81,178.964z M139.265,185.028c0-7.72,6.28-14,14-14s14,6.28,14,14s-6.28,14-14,14S139.265,192.748,139.265,185.028z
	 M168.468,264.201c-3.86,0-7-3.14-7-7s3.14-7,7-7s7,3.14,7,7C175.468,261.061,172.328,264.201,168.468,264.201z M211.838,133.327
	c-3.86,0-7-3.14-7-7s3.14-7,7-7s7,3.14,7,7S215.698,133.327,211.838,133.327z"/>
<path d="M436.27,135H289c-5.523,0-10-4.477-10-10s4.477-10,10-10h147.27c5.523,0,10,4.477,10,10
	C446.27,130.523,441.792,135,436.27,135z"/>
<path d="M436.27,177.239H289c-5.523,0-10-4.477-10-10s4.477-10,10-10h147.27c5.523,0,10,4.477,10,10S441.792,177.239,436.27,177.239
	z"/>
<path d="M436.27,219.478H289c-5.523,0-10-4.477-10-10s4.477-10,10-10h147.27c5.523,0,10,4.477,10,10S441.792,219.478,436.27,219.478
	z"/>
<path d="M436.408,261.717h-0.138c-5.523,0-10-4.477-10-10s4.477-10,10-10h0.138c5.523,0,10,4.477,10,10
	C446.408,257.24,441.931,261.717,436.408,261.717z"/>
<path d="M402.397,261.718H289c-5.523,0-10-4.477-10-10s4.477-10,10-10h113.397c5.523,0,10,4.477,10,10
	C412.397,257.241,407.92,261.718,402.397,261.718z"/>
<g>
</g>
<g>
</g>
<g>
</g>
<g>
</g>
<g>
</g>
<g>
</g>
<g>
</g>
<g>
</g>
<g>
</g>
<g>
</g>
<g>
</g>
<g>
</g>
<g>
</g>
<g>
</g>
<g>
</g>
</svg>
