<?xml version="1.0" encoding="iso-8859-1"?>
<!-- Generator: Adobe Illustrator 19.0.0, SVG Export Plug-In . SVG Version: 6.00 Build 0)  -->
<svg version="1.1" id="Layer_1" xmlns="http://www.w3.org/2000/svg" xmlns:xlink="http://www.w3.org/1999/xlink" x="0px" y="0px"
	 viewBox="0 0 512 512" style="enable-background:new 0 0 512 512;" xml:space="preserve">
<g>
	<path style="fill:#FCD73F;" d="M128.655,321.079c32.706,32.283,77.626,52.218,127.2,52.252c0.048,0.004,0.096,0.004,0.144,0.004
		c49.633,0,94.608-19.942,127.343-52.256c33.336-32.874,53.988-78.563,53.988-129.077c0-100.146-81.184-181.332-181.332-181.332
		c-100.148,0-181.333,81.185-181.333,181.332C74.666,242.515,95.321,288.204,128.655,321.079z"/>
	<g>
		<path style="fill:#FF2C47;" d="M255.855,373.331c-49.574-0.034-94.494-19.97-127.2-52.252L64,433.065l93.256-24.986l24.988,93.254
			l73.683-127.872L255.855,373.331z"/>
		<path style="fill:#FF2C47;" d="M255.999,373.335l-0.073,0.126l73.831,127.872l24.988-93.254L448,433.065l-64.657-111.986
			C350.607,353.393,305.632,373.335,255.999,373.335z"/>
	</g>
</g>
<g>
	<path style="fill:#000003;" d="M255.999,64.002c5.89,0,10.667-4.777,10.667-10.667s-4.777-10.667-10.667-10.667
		c-68,0-127.435,45.906-144.534,111.635c-1.484,5.701,1.936,11.525,7.637,13.008c0.901,0.235,1.803,0.346,2.692,0.346
		c4.739,0,9.067-3.182,10.316-7.983C146.766,103.345,197.71,64.002,255.999,64.002z"/>
	<path style="fill:#000003;" d="M117.937,175.135c-5.855-0.268-10.867,4.301-11.126,10.187c-0.098,2.211-0.147,4.46-0.147,6.681
		c0,5.89,4.777,10.667,10.667,10.667c5.891,0,10.667-4.777,10.667-10.667c0-1.909,0.043-3.841,0.126-5.741
		C128.383,180.377,123.823,175.396,117.937,175.135z"/>
	<path style="fill:#000003;" d="M245.332,330.671c0,5.89,4.775,10.667,10.667,10.667c68.002,0,127.437-45.908,144.533-111.64
		c1.484-5.702-1.936-11.526-7.637-13.008c-5.71-1.488-11.527,1.936-13.008,7.637C365.234,280.661,314.29,320.004,256,320.004
		C250.109,320.004,245.332,324.779,245.332,330.671z"/>
	<path style="fill:#000003;" d="M394.06,208.866c0.16,0.007,0.32,0.011,0.478,0.011c5.675,0,10.396-4.471,10.647-10.197
		c0.098-2.211,0.147-4.459,0.147-6.677c0-5.89-4.777-10.667-10.667-10.667c-5.891,0-10.667,4.777-10.667,10.667
		c0,1.907-0.043,3.838-0.126,5.738C383.614,203.625,388.174,208.606,394.06,208.866z"/>
	<path style="fill:#000003;" d="M260.209,122.593c-5.34,0-11.296,1.366-17.867,4.107l-24.027,9.652
		c-2.052,0.959-3.082,2.261-3.082,3.902c0,1.372,1.575,6.436,4.725,15.196c0.686,1.918,1.919,2.873,3.698,2.873
		c1.506,0,3.079-0.338,4.723-1.023l19.506-7.393v87.891h-19.506c-3.971,0-5.956,1.779-5.956,5.339v12.73
		c0,3.698,1.985,5.547,5.956,5.547h62.632c2.052,0,3.525-0.343,4.415-1.029c0.89-0.682,1.335-2.053,1.335-4.106v-13.142
		c0-3.559-1.985-5.339-5.956-5.339h-15.196V136.763c0-9.449-4.588-14.171-13.758-14.171h-1.644V122.593z"/>
	<path style="fill:#000003;" d="M457.237,427.732l-60.677-105.091c31.896-34.293,51.44-80.225,51.44-130.642
		C447.999,86.13,361.869,0,256.001,0C150.132,0,64.002,86.13,64.002,191.998c0,50.416,19.542,96.346,51.437,130.64L54.762,427.732
		c-2.157,3.737-1.851,8.404,0.775,11.827c2.626,3.422,7.056,4.921,11.222,3.809l82.953-22.225l22.227,82.951
		c1.117,4.169,4.637,7.254,8.915,7.815c0.466,0.062,0.929,0.091,1.391,0.091c3.777,0,7.318-2.009,9.238-5.341l64.453-111.852
		l64.581,111.859c1.922,3.328,5.46,5.333,9.234,5.333c0.463,0,0.928-0.03,1.396-0.092c4.277-0.562,7.794-3.647,8.91-7.814
		l22.227-82.951l82.953,22.225c4.162,1.115,8.595-0.387,11.223-3.809C459.088,436.136,459.395,431.469,457.237,427.732z
		 M256.001,21.333c94.106,0,170.665,76.559,170.665,170.665s-76.559,170.666-170.665,170.666S85.335,286.104,85.335,191.998
		S161.895,21.333,256.001,21.333z M185.873,473.669l-18.315-68.349c-1.524-5.69-7.376-9.069-13.063-7.542l-68.383,18.32
		l45.175-78.243c29.298,25.088,66.212,41.516,106.746,45.297L185.873,473.669z M357.504,397.777
		c-5.694-1.522-11.538,1.852-13.064,7.542l-18.323,68.378l-52.271-90.537c40.581-3.758,77.537-20.194,106.865-45.306l45.173,78.242
		L357.504,397.777z"/>
</g>
<g>
</g>
<g>
</g>
<g>
</g>
<g>
</g>
<g>
</g>
<g>
</g>
<g>
</g>
<g>
</g>
<g>
</g>
<g>
</g>
<g>
</g>
<g>
</g>
<g>
</g>
<g>
</g>
<g>
</g>
</svg>
