<?xml version="1.0" encoding="iso-8859-1"?>
<!-- Generator: Adobe Illustrator 19.0.0, SVG Export Plug-In . SVG Version: 6.00 Build 0)  -->
<svg version="1.1" id="Layer_1" xmlns="http://www.w3.org/2000/svg" xmlns:xlink="http://www.w3.org/1999/xlink" x="0px" y="0px"
	 viewBox="0 0 512 512" style="enable-background:new 0 0 512 512;" xml:space="preserve">
<path style="fill:#27467A;" d="M396.031,146.356l75.157,200.244l32.649-21.766v-83.363
	C503.837,203.47,481.864,146.356,396.031,146.356z"/>
<path style="fill:#2F5E88;" d="M471.188,241.472v105.128h-96.923l21.766-200.244C455.876,146.356,471.188,203.47,471.188,241.472z"
	/>
<path style="fill:#367596;" d="M288.226,241.472v83.363l32.649,21.766h75.157V146.356
	C310.198,146.356,288.226,203.47,288.226,241.472z"/>
<path style="fill:#27467A;" d="M396.033,200.522c-11.61,0-21.021,9.411-21.021,21.021v38.74c0,11.61,9.411,21.021,21.021,21.021
	c11.61,0,21.021-9.411,21.021-21.021v-38.74C417.055,209.934,407.643,200.522,396.033,200.522z"/>
<path style="fill:#E89330;" d="M115.125,8.144L77.887,115.106l37.238,106.962c59.073,0,106.962-47.889,106.962-106.962
	S174.199,8.144,115.125,8.144z"/>
<path style="fill:#FFBE35;" d="M8.163,115.106c0,59.073,47.889,106.962,106.962,106.962V8.144
	C56.052,8.144,8.163,56.033,8.163,115.106z"/>
<path style="fill:#FFDB8A;" d="M115.125,40.793V189.42c41.076,0,74.314-33.238,74.314-74.314
	C189.439,74.031,156.202,40.793,115.125,40.793z"/>
<path style="fill:#FFEAB5;" d="M115.125,40.793c-41.075,0-74.314,33.237-74.314,74.314c0,41.075,33.238,74.314,74.314,74.314
	c28.122,0,50.878-33.238,50.878-74.314S143.248,40.793,115.125,40.793z"/>
<path style="fill:#111449;" d="M471.188,324.835l-75.157,178.479c85.833,0,107.806-57.113,107.806-95.116v-83.363H471.188z"/>
<path style="fill:#27467A;" d="M288.226,324.835v83.363c0,38.003,21.972,95.116,107.806,95.116
	c59.845,0,75.157-57.113,75.157-95.116v-83.363H288.226z"/>
<path d="M396.032,138.466c-85.596,0-115.968,55.637-115.968,103.283v166.715c0,47.645,30.372,103.283,115.968,103.283
	S512,456.109,512,408.464V241.75C512,194.104,481.628,138.466,396.032,138.466z M495.676,408.465
	c0,10.022-1.926,35.592-19.765,56.519c-17.219,20.199-44.094,30.44-79.878,30.44s-62.659-10.242-79.878-30.44
	c-17.84-20.926-19.765-46.497-19.765-56.519V241.75c0-10.022,1.926-35.592,19.765-56.519c17.219-20.199,44.094-30.44,79.878-30.44
	s62.659,10.242,79.878,30.44c17.84,20.927,19.765,46.497,19.765,56.519V408.465z"/>
<path d="M325.805,16.578c34.222,0,62.065,27.843,62.065,62.065v35.337c0,4.509,3.654,8.162,8.162,8.162
	c4.508,0,8.162-3.653,8.162-8.162V78.643c0-43.224-35.166-78.389-78.389-78.389c-43.224,0-78.389,34.979-78.389,77.972v217.336
	c0,33.993-27.842,61.648-62.065,61.648s-62.065-27.843-62.065-62.065v-64.937c59.685-4.201,106.962-54.096,106.962-114.831
	c0-63.48-51.645-115.124-115.124-115.124C51.645,0.254,0,51.9,0,115.379c0,60.735,47.277,110.63,106.962,114.831v64.937
	c0,43.224,35.166,78.389,78.389,78.389s78.389-34.979,78.389-77.972V78.228C263.74,44.234,291.582,16.578,325.805,16.578z
	 M16.324,115.379c0-54.48,44.321-98.8,98.8-98.8s98.8,44.321,98.8,98.8c0,54.48-44.321,98.8-98.8,98.8
	C60.646,214.179,16.324,169.858,16.324,115.379z"/>
<path d="M115.098,138.778c-3.388,0-6.144-2.757-6.144-6.144c0-4.509-3.654-8.162-8.162-8.162s-8.162,3.653-8.162,8.162
	c0,9.508,5.945,17.636,14.307,20.911v3.5c-0.001,4.508,3.652,8.162,8.161,8.163c0,0,0,0,0.001,0c4.508,0,8.161-3.653,8.162-8.161
	v-3.501c8.361-3.276,14.309-11.403,14.309-20.912c0-15.74-12.817-21.753-18.976-24.643c-7.525-3.53-9.586-5.65-9.586-9.863
	c0-3.388,2.757-6.144,6.144-6.144c3.388,0,6.144,2.757,6.144,6.144c0,4.509,3.654,8.162,8.162,8.162s8.162-3.653,8.162-8.162
	c0-9.508-5.945-17.636-14.307-20.911v-3.499c0.001-4.509-3.653-8.163-8.161-8.163l0,0c-4.508,0-8.162,3.653-8.163,8.161v3.501
	c-8.361,3.275-14.308,11.403-14.308,20.911c0,15.739,12.817,21.753,18.976,24.643c7.525,3.53,9.586,5.65,9.586,9.863
	C121.243,136.02,118.486,138.778,115.098,138.778z"/>
<path d="M197.6,115.379c0-45.477-36.998-82.476-82.476-82.476c-18.813,0-37.227,6.53-51.848,18.388
	c-14.398,11.674-24.555,28-28.6,45.97c-0.99,4.398,1.773,8.766,6.171,9.755c4.399,0.994,8.766-1.772,9.755-6.169
	c6.733-29.91,33.869-51.621,64.522-51.621c36.476,0,66.151,29.676,66.151,66.151S151.6,181.53,115.124,181.53
	c-30.653,0-57.788-21.709-64.522-51.621c-0.99-4.398-5.36-7.163-9.755-6.169c-4.398,0.989-7.161,5.358-6.171,9.755
	c4.045,17.97,14.202,34.296,28.599,45.971c14.621,11.858,33.035,18.388,51.848,18.388C160.601,197.855,197.6,160.857,197.6,115.379z
	"/>
<path d="M404.194,316.945v-28.377c12.13-3.54,21.02-14.754,21.02-28.012v-38.741c0-13.259-8.89-24.472-21.02-28.012v-14.525
	c0-4.509-3.654-8.162-8.162-8.162c-4.508,0-8.162,3.653-8.162,8.162v14.525c-12.13,3.54-21.02,14.754-21.02,28.012v38.741
	c0,13.259,8.89,24.472,21.02,28.012v28.377h-66.995c-4.508,0-8.162,3.653-8.162,8.162c0,4.509,3.654,8.162,8.162,8.162h150.314
	c4.508,0,8.162-3.653,8.162-8.162c0-4.509-3.654-8.162-8.162-8.162L404.194,316.945L404.194,316.945z M383.173,260.556v-38.741
	c0-7.09,5.768-12.858,12.858-12.858c7.09,0,12.858,5.769,12.858,12.858v38.741c0,7.09-5.768,12.858-12.858,12.858
	C388.942,273.414,383.173,267.646,383.173,260.556z"/>
<g>
</g>
<g>
</g>
<g>
</g>
<g>
</g>
<g>
</g>
<g>
</g>
<g>
</g>
<g>
</g>
<g>
</g>
<g>
</g>
<g>
</g>
<g>
</g>
<g>
</g>
<g>
</g>
<g>
</g>
</svg>
