<?xml version="1.0" encoding="iso-8859-1"?>
<!-- Generator: Adobe Illustrator 19.0.0, SVG Export Plug-In . SVG Version: 6.00 Build 0)  -->
<svg version="1.1" id="Capa_1" xmlns="http://www.w3.org/2000/svg" xmlns:xlink="http://www.w3.org/1999/xlink" x="0px" y="0px"
	 viewBox="0 0 512 512" style="enable-background:new 0 0 512 512;" xml:space="preserve">
<path style="fill:#ECEFF9;" d="M209.455,104.727c-10.135,0-19.444-4.247-26.007-11.636H128v349.091h166.865
	c9.216,0,18.211-3.712,24.704-10.205l54.225-54.225c6.481-6.493,10.205-15.488,10.205-24.704V93.091h-55.447
	c-6.563,7.389-15.872,11.636-26.007,11.636H209.455z"/>
<g>
	<path style="fill:#014463;" d="M337.455,314.182H174.545c-6.423,0-11.636-5.201-11.636-11.636s5.213-11.636,11.636-11.636h162.909
		c6.423,0,11.636,5.201,11.636,11.636S343.878,314.182,337.455,314.182z"/>
	<path style="fill:#014463;" d="M314.182,349.091H197.818c-6.423,0-11.636-5.201-11.636-11.636s5.213-11.636,11.636-11.636h116.364
		c6.423,0,11.636,5.201,11.636,11.636S320.605,349.091,314.182,349.091z"/>
</g>
<path style="fill:#D98B37;" d="M93.091,488.727h325.818c6.412,0,11.636-5.213,11.636-11.636V58.182
	c0-6.423-5.225-11.636-11.636-11.636h-81.455v23.273h58.182c6.423,0,11.636,5.201,11.636,11.636v271.628
	c0,15.546-6.051,30.161-17.036,41.146l-54.191,54.179c-10.996,10.985-25.612,17.047-41.146,17.047H116.364
	c-6.423,0-11.636-5.201-11.636-11.636V81.455c0-6.435,5.213-11.636,11.636-11.636h58.182V46.545H93.091
	c-6.412,0-11.636,5.213-11.636,11.636v418.909C81.455,483.514,86.679,488.727,93.091,488.727z"/>
<path style="fill:#B0C4D9;" d="M197.818,46.545v23.273c0,2.013,0.547,4.061,1.548,5.748c2.153,3.7,5.923,5.888,10.089,5.888h93.091
	c4.166,0,7.936-2.188,10.077-5.865c1.012-1.711,1.559-3.759,1.559-5.772V46.545h-34.909c-6.423,0-11.636-5.201-11.636-11.636
	c0-6.423-5.225-11.636-11.636-11.636c-3.107,0-5.969,1.199-8.076,3.34c-2.374,2.316-3.561,5.19-3.561,8.297
	c0,6.435-5.213,11.636-11.636,11.636H197.818z"/>
<path style="fill:#3BB54A;" d="M267.636,221.091c-2.979,0-5.958-1.14-8.227-3.409l-23.273-23.273c-4.55-4.55-4.55-11.904,0-16.454
	c4.55-4.55,11.904-4.55,16.454,0l15.046,15.046l38.319-38.319c4.55-4.55,11.904-4.55,16.454,0s4.55,11.904,0,16.454l-46.545,46.545
	C273.594,219.951,270.615,221.091,267.636,221.091z"/>
<path style="fill:#014463;" d="M314.182,267.636H197.818c-6.423,0-11.636-5.201-11.636-11.636V139.636
	c0-6.435,5.213-11.636,11.636-11.636h69.818c6.423,0,11.636,5.201,11.636,11.636s-5.213,11.636-11.636,11.636h-58.182v93.091h93.091
	v-23.273c0-6.435,5.213-11.636,11.636-11.636s11.636,5.201,11.636,11.636V256C325.818,262.435,320.605,267.636,314.182,267.636z"/>
<g>
	<path style="fill:#C87629;" d="M336.023,448.431c-10.822,10.822-25.821,17.024-41.158,17.024h44.591
		c6.167,0,12.09-2.455,16.454-6.819l44.544-44.544c4.364-4.364,6.819-10.287,6.819-16.454v-44.591
		c0,15.337-6.202,30.336-17.024,41.158L336.023,448.431z"/>
	<rect x="337.455" y="46.545" style="fill:#C87629;" width="11.636" height="23.273"/>
</g>
<polygon style="fill:#C4D7E5;" points="325.818,384 367.546,384 325.818,425.728 "/>
<path style="fill:#014463;" d="M418.909,23.273h-93.091h-36.899C284.113,9.728,271.174,0,256,0c-9.437,0-18.223,3.677-24.529,10.159
	c-3.828,3.724-6.668,8.204-8.413,13.114h-36.876H93.091c-19.247,0-34.909,15.663-34.909,34.909v418.909
	c0,19.247,15.663,34.909,34.909,34.909h325.818c19.247,0,34.909-15.663,34.909-34.909V58.182
	C453.818,38.935,438.156,23.273,418.909,23.273z M197.818,46.545h34.909c6.423,0,11.636-5.201,11.636-11.636
	c0-3.107,1.187-5.981,3.561-8.297c2.106-2.141,4.969-3.34,8.076-3.34c6.412,0,11.636,5.213,11.636,11.636
	c0,6.435,5.213,11.636,11.636,11.636h34.909v23.273c0,2.013-0.547,4.061-1.559,5.772c-2.141,3.677-5.911,5.865-10.077,5.865h-93.091
	c-4.166,0-7.936-2.188-10.089-5.888c-1.001-1.687-1.548-3.735-1.548-5.748V46.545z M209.455,104.727h93.091
	c10.065,0,19.188-4.352,25.74-11.636H384v244.364c0,12.835-10.438,23.273-23.273,23.273h-46.545
	c-6.423,0-11.636,5.201-11.636,11.636v46.545c0,12.835-10.438,23.273-23.273,23.273H128V93.091h55.715
	C190.278,100.387,199.389,104.727,209.455,104.727z M367.546,384l-41.728,41.728V384H367.546z M430.545,477.091
	c0,6.423-5.225,11.636-11.636,11.636H93.091c-6.412,0-11.636-5.213-11.636-11.636V58.182c0-6.423,5.225-11.636,11.636-11.636h81.455
	v23.273h-58.182c-6.423,0-11.636,5.201-11.636,11.636v372.364c0,6.435,5.213,11.636,11.636,11.636H294.9
	c15.535,0,30.15-6.063,41.135-17.047l54.191-54.179c10.996-10.985,17.047-25.6,17.047-41.146V81.455
	c0-6.435-5.213-11.636-11.636-11.636h-58.182V46.545h81.455c6.412,0,11.636,5.213,11.636,11.636V477.091z"/>
<g>
</g>
<g>
</g>
<g>
</g>
<g>
</g>
<g>
</g>
<g>
</g>
<g>
</g>
<g>
</g>
<g>
</g>
<g>
</g>
<g>
</g>
<g>
</g>
<g>
</g>
<g>
</g>
<g>
</g>
</svg>
